<?xml version="1.0" encoding="utf-8"?>
<!-- Generator: Adobe Illustrator 27.1.0, SVG Export Plug-In . SVG Version: 6.00 Build 0)  -->
<svg version="1.1" xmlns="http://www.w3.org/2000/svg" xmlns:xlink="http://www.w3.org/1999/xlink" x="0px" y="0px"
	 viewBox="0 0 612 792" style="enable-background:new 0 0 612 792;" xml:space="preserve">
<style type="text/css">
	.st0{fill-rule:evenodd;clip-rule:evenodd;fill:#231F20;}
	.st1{fill:#231F20;}
</style>
<g id="Capa_1">
	<g>
		<g>
			<g>
				<path class="st1" d="M330.06,490.79h7.43l14.78,38.47h-7.62l-2.97-7.92h-15.72l-3.12,7.92h-7.61L330.06,490.79z M333.81,501
					l-5.16,13.19h10.29L333.81,501z"/>
				<path class="st1" d="M355.49,500.81h6.11v3.6c0.68-1.42,1.54-2.5,2.65-3.24c1.09-0.71,2.3-1.1,3.6-1.1c0.94,0,1.9,0.27,2.9,0.75
					l-2.21,6.15c-0.83-0.4-1.52-0.63-2.06-0.63c-1.1,0-2.05,0.68-2.8,2.04c-0.75,1.38-1.12,4.02-1.12,8l0.01,1.38v11.51h-7.08
					V500.81z"/>
				<path class="st1" d="M395.31,500.81h7.13v28.45h-7.13v-2.99c-1.42,1.32-2.8,2.28-4.21,2.86c-1.4,0.6-2.92,0.87-4.57,0.87
					c-3.67,0-6.84-1.43-9.52-4.28c-2.68-2.84-4.02-6.39-4.02-10.62c0-4.4,1.28-8.01,3.88-10.82c2.6-2.81,5.74-4.21,9.49-4.21
					c1.7,0,3.3,0.35,4.77,0.99c1.51,0.64,2.88,1.62,4.17,2.91V500.81z M387.79,506.68c-2.21,0-4.05,0.79-5.47,2.34
					c-1.52,1.56-2.22,3.54-2.22,5.98c0,2.46,0.73,4.5,2.22,6.08c1.5,1.58,3.33,2.38,5.49,2.38c2.25,0,4.1-0.77,5.62-2.35
					c1.44-1.56,2.19-3.58,2.19-6.13c0-2.46-0.75-4.47-2.19-6.03C391.91,507.45,390.06,506.68,387.79,506.68z"/>
				<path class="st1" d="M430.69,500.81h7.13v24.37c0,4.82-0.99,8.37-2.91,10.62c-2.6,3.09-6.51,4.61-11.73,4.61
					c-2.81,0-5.16-0.35-7.04-1.04c-1.93-0.72-3.52-1.74-4.82-3.08c-1.31-1.34-2.3-3.01-2.93-4.92h7.9c0.67,0.8,1.57,1.39,2.68,1.82
					c1.09,0.4,2.4,0.61,3.91,0.61c1.9,0,3.45-0.29,4.61-0.91c1.15-0.58,2.01-1.36,2.47-2.29c0.49-0.93,0.72-2.57,0.72-4.87
					c-1.25,1.26-2.58,2.16-3.94,2.71c-1.38,0.57-2.96,0.83-4.67,0.83c-3.83,0-7.07-1.38-9.71-4.12c-2.61-2.75-3.93-6.24-3.93-10.46
					c0-4.54,1.39-8.15,4.18-10.89c2.51-2.47,5.54-3.72,9.05-3.72c1.65,0,3.2,0.32,4.65,0.92c1.45,0.6,2.89,1.59,4.37,2.98V500.81z
					 M423.3,506.75c-2.26,0-4.14,0.75-5.58,2.27c-1.47,1.5-2.21,3.38-2.21,5.68c0,2.36,0.74,4.32,2.26,5.82
					c1.5,1.53,3.39,2.27,5.65,2.27c2.21,0,4.03-0.73,5.47-2.21c1.43-1.49,2.16-3.42,2.16-5.82c0-2.38-0.74-4.31-2.16-5.81
					C427.44,507.48,425.56,506.75,423.3,506.75z"/>
				<path class="st1" d="M458.37,500.06c2.69,0,5.22,0.68,7.59,2.03c2.37,1.35,4.21,3.17,5.52,5.46c1.33,2.3,2.01,4.79,2.01,7.45
					c0,2.7-0.68,5.22-2.01,7.53c-1.34,2.35-3.15,4.16-5.44,5.49c-2.34,1.32-4.85,1.97-7.64,1.97c-4.09,0-7.55-1.45-10.45-4.35
					c-2.88-2.9-4.32-6.43-4.32-10.57c0-4.46,1.64-8.15,4.89-11.11C451.38,501.38,454.67,500.06,458.37,500.06z M458.5,506.8
					c-2.21,0-4.05,0.76-5.51,2.31c-1.5,1.56-2.25,3.52-2.25,5.94c0,2.48,0.74,4.47,2.21,6c1.44,1.55,3.32,2.31,5.55,2.31
					c2.21,0,4.09-0.79,5.57-2.33c1.48-1.54,2.24-3.54,2.24-5.98c0-2.46-0.73-4.44-2.2-5.97C462.63,507.56,460.78,506.8,458.5,506.8z
					 M459.71,485.37h8.47l-9.56,10.25h-5.14L459.71,485.37z"/>
				<path class="st1" d="M479.28,500.81h7.19v2.9c1.61-1.34,3.06-2.3,4.38-2.84c1.33-0.51,2.66-0.81,4.03-0.81
					c2.84,0,5.23,1.01,7.18,2.95c1.69,1.71,2.5,4.16,2.5,7.44v18.81h-7.07v-12.44c0-3.41-0.13-5.67-0.45-6.77
					c-0.31-1.12-0.84-1.98-1.59-2.56c-0.78-0.57-1.71-0.89-2.83-0.89c-1.44,0-2.68,0.49-3.7,1.45c-1.05,0.97-1.75,2.31-2.15,4.01
					c-0.21,0.89-0.31,2.83-0.31,5.8v11.4h-7.19V500.81z"/>
			</g>
			<g>
				<path class="st0" d="M392.85,284.55c4.07-1.7,3.52,11.66,1.99,12.36c-0.43,0.22-1.41,0.3-1.99-0.19
					c-0.93-0.81-1.28-7.51-1.19-9.96C391.67,286.15,392.13,284.86,392.85,284.55z M393.26,285.35c-0.1,0.25-0.21,0.46-0.41,0.62
					c0.74,3.63-0.72,7.89,1.38,10.15c1.04-1.2,0.31-3.84,0.21-5.96c-0.09-1.83,0.52-4.03-0.81-4.81
					C393.55,285.35,393.39,285.35,393.26,285.35z"/>
				<path class="st0" d="M396.64,284.36c2.58,0.28,1.83,3.88,2.98,5.6c0.56-2.08-0.07-3.68,0-5.6c1.66-0.31,1.12,1.68,1.21,2.6
					c0.27,2.78,0.39,7.07,0,9.57c-1.98-1.06-1.48-4.65-2.59-6.56c-1.16,1.45,0.69,5.17-0.59,6.76c-0.92,0-0.76-1.07-0.8-1.59
					C396.5,292.18,396.73,287.55,396.64,284.36z"/>
				<path class="st0" d="M402.82,284.36c0.41,0,0.79,0,1.21,0c0.8,3.53,2.11,8.63,1.58,12.17c-1.71,0.25,0-2.92-1.4-3
					c-0.45-0.06-0.75,0.02-0.97,0.21c-0.66,0.75,0.13,2.93-1.23,2.99C401.66,293.14,402.65,287.89,402.82,284.36z M404.03,292.52
					c0.02-0.16,0.14-0.22,0.38-0.17c-0.22-1.22-0.03-2.77-0.8-3.4C403.61,290.06,402.61,292.41,404.03,292.52z"/>
				<path class="st0" d="M406.41,284.36c0.34,0,0.65,0,1,0c0.31,3.39,0.4,7.03,0.4,10.77c0,0.91,1.52,0.31,2.01,0.8
					c-0.07,1.06-2.53,0.57-3.21,0.4C406.63,291.31,406.56,288.11,406.41,284.36z"/>
				<path class="st0" d="M417.18,284.55c1.19,3.12,1.67,8.01,1.38,11.97c-1.35-0.08-0.18-2.73-1.38-3c-1.94-0.24-0.93,2.41-2,3
					c-0.85-1.24-0.1-3.53,0.19-5.4c0.34-2.02,0.81-4.04,0.81-5.98c0.26-0.18,0.42-0.5,0.59-0.78
					C417.02,284.33,417.14,284.41,417.18,284.55z M416.99,292.52c0.78-0.5,0.73-2.83-0.21-3.57
					C416.67,289.99,415.58,292.41,416.99,292.52z"/>
				<path class="st0" d="M420.37,284.55c1.27,1.43,0.47,3.93,0.41,5.78c-0.08,1.87-0.5,4.53,0.8,5.79c1.88-2.6,0.19-8.04,1.4-11.57
					c0.97,0.22,0.82,1.98,0.8,3.41c-0.11,3.16,0.09,7.29-1.21,8.96c-0.98,0.17-1.27,0.05-2.19-0.19c-1.47-2.93-0.27-8.94-0.4-12.17
					C420.11,284.55,420.23,284.55,420.37,284.55z"/>
				<path class="st0" d="M431.94,284.77c1.55,3.32,0.75,9.09-0.39,12.36c-0.75,0.16-1.69,0.36-2.39,0
					C428.28,294.2,427.42,283.15,431.94,284.77z M430.56,285.77c-0.01,0.26-0.28,0.27-0.21,0.58c-0.59,0.97-0.29,3.54-0.4,5.59
					c-0.13,1.75-0.88,3.53,0.4,4.18c1.31-0.49,0.7-2.32,0.77-3.6c0.14-2.24,0.76-4.9,0.42-6.75
					C431.21,285.77,430.89,285.77,430.56,285.77z"/>
				<path class="st0" d="M389.65,284.77c1.64,0.9,1.01,3.76,1.21,5.98c0.14,2.11,0.94,4.65,0,6.17c-1.18-0.24-0.68-2.08-0.8-3.18
					C389.75,291.31,389.11,286.9,389.65,284.77z"/>
				<path class="st0" d="M424.76,284.77c1.21,0.05,2.68-0.16,3.6,0.2c0.1,0.89-1.17,0.42-1.42,1.01c-0.15,3.81,0.1,7.51-0.78,10.94
					c-1.53-0.1-0.62-1.83-0.61-2.58c0.08-2.67,0.1-5.93,0.21-8.36C425.7,285.28,424.54,285.73,424.76,284.77z"/>
				<path class="st0" d="M434.75,284.77c1.45,1.04,1.03,4.01,1.78,5.77c0.93-1.2,0.02-4.21,0.99-5.39c1.18,0.71,0.67,3.1,0.6,4.82
					c-0.12,2.71-0.31,6.16-1.2,7.76c-1.58-1.41-0.88-4.56-1.58-7.19c-1.53,1.61,0.02,5.18-1.39,7c-1.26-0.95-0.56-4-0.41-6.41
					c0.11-1.75,0.53-3.37,0.41-5.59C434.18,285.25,434.41,284.99,434.75,284.77z"/>
				<path class="st0" d="M388.27,289.14c-1.49-0.03-0.35-2.7-1.4-3.17c-1.65,1.32-0.37,5.04-0.21,7.55c0.1,1.24-0.2,2.43,0.81,3
					c1.35-0.57-0.19-3.16,0.8-3.8c1.99,0.64,1.11,5.86-1.78,4.81c-1.16-3.13-2.5-10.06-0.61-12.58c1.02-0.25,1.16,0.4,2.01,0.39
					C388.23,286.23,389.34,288.15,388.27,289.14z"/>
				<path class="st0" d="M382.07,285.35c1.37,3.63,2.5,8.55,3.01,12.37c-1.89,0.35-0.96-2.11-1.62-2.99c-2.51-0.78-0.98,2.48-2,3.2
					c-1.07-0.88-0.58-2.85-0.58-4.41c0-2.78,0.1-5.12,0.19-7.55c-0.12-0.45,0.36-0.31,0.39-0.62
					C381.68,285.35,381.87,285.35,382.07,285.35z M382.48,293.53c1.26-0.49,0.09-3.1-0.41-3.79
					C382.19,290.38,381.68,292.99,382.48,293.53z"/>
				<path class="st0" d="M442.71,285.97c0.14,2.55,0.8,10.5-1.18,11.96c-4.06,2.89-2.9-6.17-2.59-8.79c0.07-0.93,0.56-2.32,0.8-3.17
					C440.62,285.38,441.9,285.08,442.71,285.97z M440.89,286.56c0,0.24-0.24,0.25-0.16,0.59c-0.52,1.24-0.38,3.12-0.6,5.19
					c-0.18,1.61-1.07,4.03,0.41,4.57c1.16-2.94,1.08-7.04,1.36-10.35C441.58,286.56,441.25,286.56,440.89,286.56z"/>
				<path class="st0" d="M377.88,285.97c0.2,0,0.41,0,0.61,0c0.9,3.57,1.7,8.6,1.19,11.96c-1.1,0.25-0.62-0.8-0.78-1.21
					c-0.75-1.72-1.66-3.71-2.21-5.6c-1.19,1.87,1.06,5.48,0,7.2c-1.35-0.47-0.84-2.36-1-3.59c-0.34-2.72-1.09-5.94-0.8-8.38
					c2.37,0.44,1.86,3.75,3.18,5.19C378.72,289.89,377.52,287.36,377.88,285.97z"/>
				<path class="st0" d="M445.9,285.97c1.06,1.24,0.34,4.91,0.78,6.16c1.09-1.39,0.92-4.04,1.8-5.57c0.73-0.08,1.3,0.02,1.8,0.2
					c0.07,2.75-0.5,5.01-0.8,7.57c-0.19,1.43,0.42,3.8-1.42,4.37c-0.19-2.52,0.57-4.49,0.64-7.35c-1.56,1.87-0.82,5.99-3.04,7.15
					c-0.34-2.05,0.11-4.99-0.38-7.76c-0.67,0.96-0.44,2.57-0.6,3.99c-0.14,1.23,0.06,3.17-1.21,3.59
					c-0.51-3.52,0.52-8.31,1.01-12.18C444.76,285.88,445.36,285.97,445.9,285.97z"/>
				<path class="st0" d="M454.08,286.76c0.65,2.26,0.5,5.88,0.38,8.96c-0.03,1.34,0.16,3.06-0.78,3.6c-0.98-0.28,0.06-2.58-0.61-3.2
					c-2.34-0.59-1.07,2.38-2.59,2.58c-0.42-2.95,1.73-7.85,2.59-11.35c0.05-0.27,0.34-0.32,0.4-0.6
					C453.68,286.76,453.86,286.76,454.08,286.76z M453.29,294.93c-0.05-1.56,0.45-2.35,0-3.58
					C453.03,292.15,451.19,294.87,453.29,294.93z"/>
				<path class="st0" d="M369.72,299.11c-0.68,0.34-1.52,0.47-2.6,0.42c-0.66-4.31-1.27-7.55-1.8-11.77
					c1.32-0.28,2.45-0.72,3.41,0.2C369.87,289.08,370.91,297.62,369.72,299.11z M366.73,288.55c-0.14,0.03-0.23,0.17-0.19,0.39
					c0.69,2.48,0.51,5.77,1.17,8.37c0.12,0.51,0.17,1.38,1.03,1.39c1.28-2.33,0.08-9.07-1.39-10.36
					C367.05,288.33,366.89,288.44,366.73,288.55z"/>
				<path class="st0" d="M362.35,287.96c1.32,1.21,1.83,3.57,2.38,5.57c0.61,2.13,1.33,4.27,1.4,6.18
					c-1.84,0.38-0.66-2.25-1.81-2.58c-2.15-0.51-0.51,2.82-1.6,3.4c-1.55-1.86-0.37-8.06-1.2-11.97c0.2-0.14,0.32-0.38,0.42-0.6
					C362.06,287.96,362.23,287.96,362.35,287.96z M363.33,296.12c1.53-0.34,0.35-3.24-0.4-3.78
					C362.85,293.43,362.85,295.35,363.33,296.12z"/>
				<path class="st0" d="M464.26,288.95c0.4,4,0.75,13.14-4.78,11.17c0.52-4,1.28-8.54,1.96-11.77
					C462.63,288.28,463.68,288.39,464.26,288.95z M462.46,294.53c-1.25,0.92-1.84,3.22-1.61,5c2.15-0.35,2.25-4.11,2.6-6.58
					c0.18-1.28,0.47-2.75-0.17-3.62C461.32,289.74,461.56,293.55,462.46,294.53z"/>
				<path class="st0" d="M360.94,300.12c-0.63,0.68-1.77,0.89-2.98,0.99c-0.96-3.33-1.28-7.86-2.2-11.78
					C361.02,286.36,360.88,295.96,360.94,300.12z M357.36,289.74c0.02,3.19,0.73,7.38,1.78,10.17c1.67-0.56,0.65-2.98,0.41-4.58
					c-0.29-1.95-0.38-4.21-1.19-5.59C358,289.74,357.67,289.74,357.36,289.74z"/>
				<path class="st0" d="M353.96,289.33c0.32-0.03,0.33,0.21,0.61,0.21c0.64,1.77,0.76,4.04,1.18,6.18c0.39,1.99,1.54,4.3,0.39,5.8
					c-1.07-0.55-0.81-2.06-0.98-3.19c-0.43-2.36-1.07-5.49-1.62-8.16C353.42,289.6,353.96,289.74,353.96,289.33z"/>
				<path class="st0" d="M352.77,292.95c-1.31,0.1-0.45-1.94-1.4-2.2c-1.58,0.92-0.45,2.86,0,3.59c1.25,2.01,4.35,3.43,3,7.18
					c-1.83,1.98-4.17-0.71-3.58-2.81c1.72-0.25,0.75,2.19,1.99,2.4c2.81-2.86-4.04-6.29-3.41-9.75
					C349.94,288.21,354.14,290.52,352.77,292.95z"/>
				<path class="st0" d="M473,290.54c-0.09,1.76,0.07,3.42,0,5.59c1.41-1.15,1.29-3.78,2.22-5.38c0.44,0,0.92,0,1.38,0
					c0.45,1.49-0.15,3.1-0.41,4.59c-0.41,2.72-0.35,6.05-1.97,7.59c-0.24-2.39,0.85-5.12,1.01-7.78c-1.4,1.99-1.58,5.22-3,7.17
					c-1-1.84-0.01-6.19-0.4-7.57c-1.33,2.08-0.65,5.71-2.01,7.37c-1.08-2.02,0.33-5,0.82-7.77c0.23-1.43,0.12-2.94,0.59-4.17
					C472.05,290.04,472.57,290.24,473,290.54z"/>
				<path class="st0" d="M347.39,290.74c0.68,0.86,2.1,2.8,1.97,4.59c-0.01,0.61-0.63,0.98-0.57,1.58c0.1,2.08,1.95,3.57,1.58,5.59
					c-2.27-0.31-1.25-3.91-2.98-4.78c-0.41,1.52,0.8,3.17,0.58,5.19c-1.77,0.24-1.37-1.85-1.57-2.8c-0.54-2.68-1.41-6.28-1.79-8.99
					C345.22,290.71,346.27,290.7,347.39,290.74z M347.39,296.34c1.13-0.97,0.62-4.68-1.21-4.62
					C346.06,293.02,346.21,295.68,347.39,296.34z"/>
				<path class="st0" d="M344,291.54c-0.1,0.82-1.04,0.82-1.82,0.98c-0.16,1.17,0.47,2.95,0.81,4.2c0.63,0.04,1.47-0.14,1.81,0.19
					c0.07,1.01-1.23,0.66-1.6,1.2c0.54,1.25,0.29,3.3,1.19,4.6c0.88,0,1.45-0.76,2,0c-0.51,0.94-2.14,0.79-3.4,1
					c-0.45-4.09-1.94-8.16-2.19-11.77C341.63,291.66,343.04,291.06,344,291.54z"/>
				<path class="st0" d="M478.4,291.35c1.37-0.05,2.39,0.25,3.17,0.79c-0.04,1.15-0.94,0.2-1.78,0.38c-0.68,0.88-1.21,2.88-0.79,4.2
					c0.18,0.42,1.12,0.06,1.2,0.6c-0.28,0.91-0.84,0.3-1.8,0.62c-0.43,1.3-0.81,2.65-1.01,4.17c0.2,0.87,1.82,0.34,2.21,0.99
					c0.81-1.48,2.09-3.07,2.59-4.98c0.48-1.96-0.44-4.39,0.57-5.98c1.19,0.23,0.34,2.49,0.84,3.39c1.21-0.54,0.71-2.74,2.39-2.8
					c0.17,1.92-1.35,3.8-2.2,5.39c-0.14,2.47,0.29,5.15-0.4,6.59c-1.81-0.1-0.39-2.22-0.79-3.81c-1.47,0.42-1.06,2.71-2.4,3.23
					c-0.84-0.89-2.78-0.37-4.19-1.02C476.79,299.06,477.75,295.83,478.4,291.35z"/>
				<path class="st0" d="M338.61,292.35c0.15,0,0.27,0,0.42,0c1.17,0.58,0.93,2.52,1.17,4.18c0.38,2.57,0.98,5.52,0.6,8.18
					c-1.31,0.03-1.09-1.26-1.4-1.99c-1.32-3.09-3.13-6.63-3.59-9.77c2.02,1.17,1.9,4.49,3.4,6.16
					C339.56,297.11,338.76,294.51,338.61,292.35z"/>
				<path class="st0" d="M487.57,293.14c0.25,0.07,0.31,0.34,0.62,0.39c-0.36,2.04-0.93,4.19-1.42,6.18
					c-0.5,1.96-0.72,4.09-1.99,5.39c-0.79-1.12,0.1-3.72,0.59-5.78c0.46-1.95,1.33-4,1.61-5.79
					C487.16,293.36,487.51,293.4,487.57,293.14z"/>
				<path class="st0" d="M334.03,293.53c2.04,3.01,3.22,7.94,3.77,11.77c-1.06,0.07-1.35-1.44-1.59-2.2
					c-0.83-2.73-1.45-6.15-2.58-8.76C333.47,293.8,334.03,293.94,334.03,293.53z"/>
				<path class="st0" d="M491.58,298.5c-1.61-0.43,0.46-2.39-0.42-3.37c-1.47,0.69-1.68,2.96-2.19,4.57
					c-0.51,1.68-1.22,3.67-0.78,5.39c1.6-0.02,0.8-3.39,2.19-2.99c1.38,2.19-2.24,5.98-3.79,2.99c-0.02-1.5,0.66-3.28,1.2-5.19
					c0.73-2.8,0.85-6.37,3.98-5.75C492.72,295.06,492.87,297.8,491.58,298.5z"/>
				<path class="st0" d="M331.63,294.16c0.19,0,0.38,0,0.59,0c1.29,3.61,3.21,7.66,3.39,11.74c-2-0.7-2.48-4.56-4.39-5.99
					c-0.34,2.12,2.29,4.93,1.38,6.97c-1.38-1.34-1.69-3.83-2.37-5.98c-0.69-1.98-1.97-4.17-1.42-5.96c2.19,0.83,2.45,3.56,4.02,4.98
					C333.28,298.01,331.22,295.96,331.63,294.16z"/>
				<path class="st0" d="M490.97,306.69c0.38-2.53,1.69-12.68,5.58-11.15c1.69,1.97-1.46,11.12-2.8,11.75
					C492.79,307.75,491.77,307.38,490.97,306.69z M495.14,296.53c-0.85,3.05-3.08,6.71-2.58,9.78c2.04-1.08,2.27-4.91,2.78-6.78
					c0.54-0.57,1.16-1.99,0.59-3C495.7,296.53,495.4,296.53,495.14,296.53z"/>
				<path class="st0" d="M326.05,295.94c0.12,0,0.26,0,0.39,0c1.56,1.25,1.7,3.68,2.38,5.58c0.7,1.85,2.19,3.75,1.42,5.96
					c-0.5,0.51-1.31,0.7-2.4,0.61c-1.26-1.34-1.84-3.54-2.62-5.59c-0.71-1.95-1.91-4.06-1.58-5.78c1.32,0.08,1.24,1.77,1.58,2.8
					c0.85,2.27,1.97,5.6,3.41,7.56c1.6-1.16-0.19-3.3-0.8-4.98c-0.7-1.9-1.11-3.97-1.8-5.58
					C326.05,296.34,326.05,296.12,326.05,295.94z"/>
				<path class="st0" d="M436.72,304.12c1.28-0.32,1.1-2.1,2.78-2.01c1.99,2.09,1.84,3.47,3.99,5.17c4.06,3.22,12.39,1.43,13.17,6.6
					c0.34,2.35-0.97,3.76-2.58,4.57c0.2-2.31-1.84-3.89-3.8-2.78c-0.15,1.08,1.63,0.21,1.78,0.99c-0.76,5.31-8.09,1.08-11.19,3
					c-2.18,7.14,1.81,17.41,8.99,13.16c1.36,5.31-7.59,6.44-9.95,2.98c-1.18,0.69-0.95,2.13-2.2,2.39c-2.91,0.66-3.7-3.73-5.58-4.77
					c-2.93,2.55-10.18,7.14-14.96,3.58c-1.15-0.85-1.99-2.54-2.38-4.39c5.59,1.25,10.47-1.05,12.94-4.18
					c-2.96,2.11-13.06,3.91-12.37-3.39c5.17,1.35,9.23-1.1,11.77-3.59c-4.09,0.72-8.62-0.91-9.56-4.6c3.2,0.66,7.57,0.57,9.56-0.99
					c-3.08,0.23-6.79-0.6-7.17-4.19c2.6-0.5,7.21,0.13,9.55-1.2c-1.85-2.1-2.59-6.28-0.2-8.18c1.38,0.12,1.49,1.46,2.4,2
					c0.51-1.16,0.06-2.3,1.21-2.99C434.37,302.08,435.4,303.23,436.72,304.12z M434.31,309.27c-2.55-0.46-3-3.08-4.57-4.57
					c-1.9,3.07,2.16,4.55,3.2,6.59c-2.89,1.72-7.55,1.12-10.97,1.6c0.83,1.98,5.78,1.35,8.38,0.78c1.17,5.23-5.35,4.69-9.18,4.99
					c2.62,2.68,8.81,0.26,10.77-1.99c-0.98-2.83,1.5-5.16,3.8-5.98c0.2-1.43-0.61-2.94,0.2-4.38c-0.79-0.67-1.13-1.8-2.41-2
					C433.17,306.47,434.4,308.04,434.31,309.27z M441.11,306.88c-0.51-0.98-0.82-2.19-2.18-2.36
					C439,305.95,439.73,306.75,441.11,306.88z M440.89,309.27c-0.49-0.46-1.08,0.23-1.95,0c-0.64-0.22-0.35-1.4-1-1.59
					C436.6,309.46,439.97,311.34,440.89,309.27z M437.14,311.68c-2.05,0.29-3.41,2.16-3.61,3.79c2.01-0.04,2.01-2.12,3.99-2.19
					c0.14,0.74-0.51,1.29,0,1.8c1.02-0.26,1.18-1.39,1.8-1.99c1.64-0.69,3.82-0.83,3.81-3.21c-0.07-0.15-0.19-0.23-0.41-0.19
					C442.4,312.85,439.35,311.36,437.14,311.68z M441.53,315.07c1.96-1,3.28-2.72,4.38-4.6
					C444.09,311.66,442.81,313.39,441.53,315.07z M447.9,310.69c-0.14,0-0.26,0-0.42,0c-0.94,3.09-3.96,4.14-5.95,6.17
					c1.96,0.03,5.52,2.09,7.96,1c-1.21-1.14-4.49-0.19-5.19-1.78c2.34-1.86,7.93-3.12,10.78-1.01
					C455.88,311.35,450.67,311.32,447.9,310.69z M433.74,320.27c1.09-0.17,1.21-1.32,2.2-1.61c0.81,0.95,0.66,2.91,2.18,3.18
					c0.61-1.44,1.03-3.09,1-5.17c-0.81,0.14-1.45,0.44-2.2,0.6C435.21,315.36,432.01,317.94,433.74,320.27z M431.13,319.66
					c-2.84,4.1-6.84,7.1-13.54,7.38c0.39,2.01,3.58,2.01,5.39,1.59c1.1-0.25,3.02-1.73,4.59-2.98c2.24-1.78,4.72-3.3,4.17-5.99
					C431.54,319.66,431.34,319.66,431.13,319.66z M431.13,326.84c2.28-0.89,3.95-2.32,4.21-5.19
					C433.31,322.64,430.92,324.26,431.13,326.84z M437.73,328.23c0.38-1.61,1.28-3.8,0.21-5.17c-0.35,0-0.7,0-1.01,0
					C436.69,324.63,436.34,327.66,437.73,328.23z M432.74,328.03c0.95,1.29-0.6,3.92,1.57,4c0.5-1.58,0.99-3.16,1.03-5.18
					C434.27,326.32,433.79,327.9,432.74,328.03z M430.75,329.02c-0.88,0.37-1.28,1.09-1.99,1.61c-2.44,1.74-5.18,3.41-8.6,3.99
					c-0.88,0.15-1.7-0.46-2.58,0.58c4.54,3.14,10.57-0.93,13.17-3.58c-0.07-1.06,0.64-1.34,0.38-2.61
					C431.01,329.02,430.89,329.02,430.75,329.02z M434.75,333.62c0.42,1.35,1.16,2.42,2.77,2.58c-0.13-1.43,0.53-2.77,0-3.97
					C436.67,331.99,435.8,333.43,434.75,333.62z M446.69,335.61c-2.06-0.14-3.56-0.83-5.16-1.39
					C442.13,335.54,445.27,337.06,446.69,335.61z"/>
				<path class="st0" d="M375.5,307.68c1.05,1.68,1.76,4.62,2.99,6.79c0.47,0.83,1.25,1.21,1.39,1.98c0.4,2.23-1.09,4.34-2.58,4.6
					c-0.91,0.18-1.98-0.4-3.01-0.6c-2.1-0.39-5.06-0.19-6.15-1.58c1.43-1.47,4.59-1.25,5.57-3.19c-0.78-0.86-2.58,0.32-3.6-0.21
					C369.11,311.62,372.04,308.43,375.5,307.68z M371.9,313.67c2.61-0.75,4.98,0.83,4.19,3.19c-0.39,1.18-1.73,0.83-2.57,1.8
					c0.54,0.75,2.04,0.62,3.18,0.79c3.25-3.52-2.19-5.84-2.19-9.77C372.85,310.11,371.24,311.59,371.9,313.67z"/>
				<path class="st0" d="M382.48,309.48c2.56-1.36,3.1,2.97,0.98,3.21C381.72,312.88,380.97,310.29,382.48,309.48z"/>
				<path class="st0" d="M369.53,310.29c-0.49,1.41-0.42,3.43-0.79,4.97c-0.66,0.9-1.96,1.12-2.2,2.39c0.1,0.76,0.54,1.16,0.8,1.8
					c-1.95,0.06-3.02-0.74-4.02-1.6C362.23,313.07,366.36,310.8,369.53,310.29z M364.73,316.67c1.6-0.66,2.71-1.82,2.79-3.98
					C365.69,313.07,364.48,314.83,364.73,316.67z"/>
				<path class="st0" d="M393.63,320.45c-1.41-1.54-0.62-4.44,1.4-4.77C396.64,317.13,397.11,320.79,393.63,320.45z M394.65,319.06
					c0.24-0.52,0.69-1.48-0.42-1.4C394.27,318.23,394.08,319.04,394.65,319.06z"/>
				<path class="st0" d="M394.84,325.25c-1.03-1.84-0.95-4.34,1.02-4.98C397.99,321.13,397.49,325.4,394.84,325.25z M396.06,323.06
					c-0.53-0.06,0.25-0.35,0-0.81c-0.2,0-0.43,0-0.61,0C395.24,322.82,395.76,323.65,396.06,323.06z"/>
				<path class="st0" d="M390.25,324.25c-0.57,0.31-0.92,0.8-1.76,0.8C385.89,322.4,390.62,318.18,390.25,324.25z"/>
				<path class="st0" d="M390.25,325.05c0.32,0.78,0.32,2.39,0,3.19c-0.63,0.25-0.96,0.73-1.99,0.6
					C387.2,327.26,388.4,324.99,390.25,325.05z"/>
				<path class="st0" d="M391.24,331.22c-0.54-0.92-0.32-1.87,0-2.98C395.18,324.52,395.65,332.42,391.24,331.22z M392.04,329.63
					c0.55,0.73,1.43,0.16,1.59-0.61C393.02,328.51,392.25,329.11,392.04,329.63z"/>
				<path class="st0" d="M382.48,332.24c-1.43,2.24-3.54,3.76-5.01,5.96c-2.04,0.03-3.38-0.53-5.36-1c2.3-2.63,5.54-4.3,8.37-6.38
					C381.29,331.15,382.06,331.5,382.48,332.24z M375.3,336.61c0.71-0.17,0.76,0.29,1.4,0.19c1.19-1.47,2.99-2.32,3.78-4.18
					C378.47,333.64,376.43,334.69,375.3,336.61z"/>
				<path class="st0" d="M386.49,332.82c-0.75,2.41-2.07,4.19-3.43,5.98c-1.27-0.3-2.93-0.26-4.15-0.61c1.17-2.34,3-4.02,4.56-5.96
					C384.78,332.49,385.23,332.82,386.49,332.82z M381.68,337.01c1.56,0.8,2.76-2.3,2.2-3.01
					C383.33,335.17,382.14,335.72,381.68,337.01z"/>
				<path class="st0" d="M325.44,340.59c-0.08-1.75,0.8-2.55,0.8-4.19c-1.39-0.33-1.03,2.69-2.39,3c-1.06-0.85,0.97-2.97,0.19-4.19
					c-1.47,0.57-0.99,3.13-2.18,4c-1.85-0.32-1.55-1.82-0.79-3.81c0.19-0.48,0.74-2.12,1.01-2.36c1.65-1.63,3.51,0.13,5.16,0.8
					C328.76,335.62,328.48,341.22,325.44,340.59z"/>
				<path class="st0" d="M502.15,333.43c0.84,4.75,2.04,16.43-5.98,12.55c-1.33-3-1.71-8.56-0.82-11.55
					c0.66,0.03,0.83-0.36,1.59-0.21c1.24,1.65-0.53,9.05,1.6,9.36c1.64,0.27,1.7-4.09,1.6-6.17c-0.03-1.03-0.75-2.72-0.17-3.79
					C500.68,333.3,501.24,333.11,502.15,333.43z"/>
				<path class="st0" d="M493.34,334.22c1.5,3.19,1.66,13.26-2.37,13.76c-4.55,0.6-3.49-5.32-3.98-9.36
					c0.49-0.51,1.02-0.99,1.99-1.01c1.13,1.37,0,5.05,1.4,6.16C493.05,341.54,489.48,335.54,493.34,334.22z"/>
				<path class="st0" d="M433.74,337.81c-1.77,0.2-4.34,0.54-6,0.2c0.85-1.63,2.46-2.47,3.8-3.59
					C432.74,335.06,433.07,336.61,433.74,337.81z"/>
				<path class="st0" d="M498.35,334.43c1.21,1.31,1.03,5.92,0.4,7.76C497.63,340.07,498.07,336.66,498.35,334.43z"/>
				<path class="st0" d="M334.61,343.38c-0.66,0.12-0.94-0.11-1.41-0.17c-0.42-0.87,0.64-2.24,0.23-2.99
					c-1.07,0.38-0.37,2.56-2.01,2.36c-0.56-0.77,0.6-2.17,0.21-2.78c-1.14,0.33-0.41,2.5-1.8,2.59c-3.1-2.06,1.32-8.53,4.99-5.18
					C335.51,338.86,335.04,341.65,334.61,343.38z"/>
				<path class="st0" d="M489.97,337.2c0.19,0,0.41,0,0.6,0c0.06,1.51,0.82,4.15,0,5.18C489.79,340.59,490.14,338.69,489.97,337.2z"
					/>
				<path class="st0" d="M341.18,344.38c-0.38,0-0.79,0-1.18,0c-0.6-0.8,0.2-2.13-0.22-2.78c-0.75,0.53-0.45,2.17-1,2.99
					c-1.49-0.05-0.1-1.78-0.77-2.58c-0.69,0.32-0.22,1.77-0.6,2.38c-0.55-0.15-0.53,0.29-1,0.21c-1.04-1.45,0.1-3.62,0-5.38
					C339.41,336.12,343.24,340.53,341.18,344.38z"/>
				<path class="st0" d="M466.05,355.16c0.98-0.51-0.44-2.52,1.39-2.41c1.11,0.69,0.63,2.98,1,4.39c1.37-1.29-1.42-5.71,1.99-5.17
					c0.6,2.2,0.92,9.12-1.78,9.16c-1.44,0.03-1.86-1.64-2.2-3.18c-0.49,2.42,0.16,5.99-0.82,7.96c1.1-0.28,1.35,1.09,1.81,1.99
					c0.45-0.78,0.13-2.39,0.78-2.98c1.38,1.47,0.92,4.43,0.61,6.57c-0.55,3.86-1.39,8.21-4.19,9.56c-0.03-4.25,1.46-8.6,0.99-13.93
					c-1.16,3.15-1.67,6.42-3,9.57c-2.04,4.96-4.26,10.77-3.15,17.15c0.98,0.09,1.06-1.01,2.19-1.2c5.26-0.87,4.67,7.91-0.41,8.17
					c-5.93,0.31-8.02-5.76-7-12.16c1.63-9.97,8.36-20.92,8.81-30.7c0.27-6.69-2.8-13.59-7.42-15.77c-0.13-0.94-0.42-2.75-0.18-3.38
					C462.09,340.37,465.68,346.67,466.05,355.16z"/>
				<path class="st0" d="M482.76,348.58c-0.92-0.79-1.19-2.23-1.57-3.6c-0.3,1.58,0,5.04-3.39,4.19c-1.33-0.86-1.46-3.8-0.97-5.8
					c0.69-0.1,0.95,0.25,1.38,0.39c0.1,0.75-0.33,2.08,0.38,2.2c0.77-0.46,0.07-1.6,0-2.39c0.58-0.57,0.82-1.45,2.2-1.2
					c0.49,0.25-0.1,1.57,0.4,1.82c0.14-1.39-0.03-3.58,1.99-2.8c0,0.67,0,1.33,0,1.99c0.6-0.16,0.04-1.42,0.8-1.38
					c0.4,0.47,0.13,1.6,0.21,2.38c-0.41,0.09-0.54-0.12-0.8-0.19c-0.04,0.48-0.05,0.97,0.4,1c1.39-0.46,0.65-3.44,0.59-4.79
					c0.5-0.36,1.05-0.81,1.78-0.4C487.06,343.04,487.79,349.58,482.76,348.58z"/>
				<path class="st0" d="M346.78,346.37c-1.36-0.12-0.47-1.49-0.39-2.38c-1.48-0.14-0.24,2.43-2,1.98c-0.14-0.95,0.21-1.36,0.21-2.2
					c-0.86,0.14-0.57,1.42-1,2.01c-2.71-0.02-0.95-4.19-0.21-4.98C347.6,339.49,348.62,343.6,346.78,346.37z"/>
				<path class="st0" d="M364.92,340.99c0.18-0.03,0.18,0.1,0.19,0.21c1.85,3.28-2.26,4.97-3.59,6.97
					c-3.04,8.33-1.06,20.12,1.2,27.92c1.64,5.56,4.15,9.65,3.41,16.55c-0.23,1.97-1.28,4.32-2.41,5.37
					c-2.42,2.26-9.14,2.39-9.77-1.78c-0.62-3.97,2.87-5.78,6.18-4c2.62-6.83-2.14-14.17-2.6-22.1c-0.03-0.68,0.23-1.37,0.21-1.99
					c-0.12-2.79-0.9-5.49-0.79-8.19C357.24,352.05,358.82,343.2,364.92,340.99z"/>
				<path class="st0" d="M321.67,342c-0.38,4.35-1.12,8.87-1.22,13.55c-0.04,2.31-0.45,4.91,0.82,6.98
					c2.77-1.24,2.28-5.55,2.58-8.96c0.31-3.59,0.31-7.31,1-9.99c0.71,0.08,1.11,0.49,1.8,0.61c0.61,1.16-0.1,2.42-0.21,3.78
					c-0.48,6-0.09,12.95-1.8,16.95c-6.02,1.98-7.24-1.52-6.96-7.79c0.23-5.26,0.92-12.26,1.39-15.54
					C319.66,340.79,321.09,341.54,321.67,342z"/>
				<path class="st0" d="M387.07,342.57c0.61,3.32-2.13,3.35-4.59,3.61c-0.41,1.52,0.93,1.32,0.98,2.39c-0.86,0.62-3.91,0.62-4.78,0
					c0.54-1.45,0.38-3.6,0.41-5.59c-0.06-0.68-1.3-0.15-1.41-0.81C380.19,340.97,384.82,341.08,387.07,342.57z M384.28,344.19
					c0-0.35,0-0.68,0-0.99C381.87,341.64,381.93,345.2,384.28,344.19z"/>
				<path class="st0" d="M442.88,341.81c-1.13,1.33-1.47,5.37-0.17,6.78c-1.52,0.45-2.65,0.14-4.39,0.18c0.82-1.97,1.37-5.15,0-6.96
					C439.23,341.18,442.02,341.18,442.88,341.81z"/>
				<path class="st0" d="M390.87,341.81c2.3-0.58,4.44-0.34,5.36,1c0.93,1.3,0.91,4.17-0.36,5.56c-3.17,3.39-9.37-0.09-7.37-4.99
					C388.82,342.5,389.53,342.12,390.87,341.81z M393.05,343c-2.4-0.29-1.52,3.31-1.21,4.98c0.4,0,0.81,0,1.21,0
					C393.68,346.86,393.59,344.12,393.05,343z"/>
				<path class="st0" d="M405.02,345.97c1.15,0.72,2.11,1.62,2.8,2.79c-2.48,1.12-4.85-0.34-5.4-2.39c-1.09,0.74,0.2,1.92,0.2,2.8
					c-1.58,0.18-2.63,0.21-4.59-0.19c-0.1-0.92,0.9-0.72,0.99-1.42c0-1.31,0-2.64,0-3.99c-0.02-0.75-1.25-0.3-1.18-1.2
					c1.6-1.45,6.8-0.88,8.78-0.19C407.84,343.81,406.44,345.38,405.02,345.97z M402.24,344.19c0.73,0.14,1.27,0.1,1.97-0.2
					c0-0.34,0-0.66,0-0.99c-1.21-0.15-1.03-0.02-1.97-0.19C401.83,343.16,402.13,343.73,402.24,344.19z"/>
				<path class="st0" d="M350.97,347.39c-0.75-0.57,0-1.1,0-2.01c-1.19-0.22-0.23,1.73-1.61,1.39c0.02-0.64,0.34-0.99,0.23-1.79
					c-0.97,0.03-0.71,1.3-1.21,1.79c-2.53-2.95,2.82-6.05,3.79-2.78C352.51,345.12,351.89,346.86,350.97,347.39z"/>
				<path class="st0" d="M323.05,343.2c1.07,0.91,0.29,2.68,0.21,3.98c-0.34,4.46-0.58,9.1-1.59,12.96
					c-0.76-4.57,0.27-12.22,0.98-16.95C322.79,343.2,322.92,343.2,323.05,343.2z"/>
				<path class="st0" d="M455.88,343.77c2.08,0.95,3.98,3.03,3.97,5.41c-0.94,0.02-1.51-0.34-1.98-0.81
					c-0.88,0.25-0.65,1.62-1.99,1.4C455.59,348.01,455.43,345.02,455.88,343.77z"/>
				<path class="st0" d="M356.56,348.58c-0.41-0.88,0-1.12,0-1.99c-1.07-0.1-0.41,1.58-1.23,1.78c-0.81-0.01-0.5-1.18-0.57-1.99
					c-0.83,0.12-0.57,1.31-1,1.8c-1.92-0.24-0.75-3.43,0-3.98c1.07,0.03,2.38-0.16,3.2,0.19
					C357.64,345.31,358.49,348.36,356.56,348.58z"/>
				<path class="st0" d="M475.81,344.19c2.37,4.9-3.72,9.12-4.38,3.38c-0.38,4.53-5.92,4.37-5.38-0.8c0.43-0.28,0.95-0.49,1.78-0.4
					c0.22,0.38,0.25,0.95,0.4,1.4c0.95-0.17,0.22-0.72,0.61-1.4c0.48-0.31,0.94-0.65,1.8-0.59c0.23,0.38,0.24,0.95,0.4,1.4
					c0.82-0.21-0.29-1.61,0.58-1.99c0.4,0,0.82,0,1.21,0c0.42,0.29,0.35,1.09,0.8,1.39C473.96,345.38,473.94,343.82,475.81,344.19z"
					/>
				<path class="st0" d="M330.25,345.38c0.12,1.53-0.34,2.46-0.19,3.98c0.97-1.08,0.19-2.72,0.58-3.79c1.25,0.57,0.87,2.41,0.78,3.6
					c-0.19,3.57-0.88,8.15-1.36,10.57c-0.94-2.87,0.43-6.82,0.38-10.17c-0.92,3.15-1.8,8.56-0.81,11.77
					c2.7-3.55,1.42-10.79,2.6-15.16c0.84-0.24,0.81,0.01,1.59,0.19c-0.53,4.33,1.32,19.58-4.99,18.55
					c-0.79-0.12-0.96-0.77-1.77-1.21c-0.62-5.53,0.29-13.4,1.36-18.73C328.86,344.65,329.66,345.23,330.25,345.38z"/>
				<path class="st0" d="M368.93,345.19c0.14,0,0.25,0,0.38,0c0.73-0.12,0.62,0.59,0.62,1.18c0.92,1.33,2.95,1.97,4.58,2.99
					c0.54,0.35,2.17,1.56,2.19,2.2c0.06,1.89-5.5,2.61-6.58,4.39c0.14,0.6,1.12,0.31,1.2,1.01c0.19,1.17-0.85,1.1-0.99,1.98
					c0.63,0.48,3.8,0.12,4.76,0.21c1.1-0.06,0.74-1.56,1.99-1.4c0.88,1.68,0.05,3.84,0.39,5.97c-1.25,0.26-1.34-0.64-1.78-1.19
					c-1.75-0.06-3.36-0.41-5.16,0c0,1.19,1.23,1.15,1.18,2.39c-0.47,0.95-1.97,0.5-2.79,0.19c0.03-3.52-0.5-8.49,0.18-13.15
					c1.72,0.76,3.18-0.35,4.4-1.2c-0.43-1.44-1.98-1.76-2.98-2.6c-0.75,0.05-0.35,1.28-1.42,1.01
					C368.79,347.76,368.87,346.65,368.93,345.19z"/>
				<path class="st0" d="M365.11,345.97c0.8,1.14,0.44,4.35,0.21,5.78c-1.31-0.36-1.5-1.69-2.97-1.39
					C362.69,348.33,364.48,347.74,365.11,345.97z"/>
				<path class="st0" d="M336.2,346.98c0.37,4.26-1.43,8.89-0.17,13.17c3.12-2.18,1.02-9.74,3-12.58c2.06,0.54,0.97,3.94,0.75,6.38
					c-0.28,3.54-0.04,7.67-1.77,9.19c-1.36,0.02-2.76,0.08-3.61-0.4c-1.13-5.14-0.21-10.37,0.41-15.54
					C335.08,346.65,335.69,346.8,336.2,346.98z"/>
				<path class="st0" d="M337.02,347.77c0.12,0,0.26,0,0.4,0c0.34,2.97,0.02,7.78-0.79,10.77
					C335.37,355.3,336.88,351.57,337.02,347.77z"/>
				<path class="st0" d="M450.67,347.97c0.18,0.11,0.31,0.22,0.6,0.2c-0.69,3.6,2.14,8.57-2.79,8.79c-0.47-0.55-1.14-0.86-1.39-1.61
					c-1.74-0.12-1.62,1.57-2.59,2.2c-1.7-1.68,0.52-4.12,1.78-4.81c-0.6-1.24-1.6,0.62-2.19,0c-0.04-1.09-0.22-3.78,0.21-4.57
					c0.83-0.19,0.85,0.49,0.79,1.2c1.28,0.24,2.68,0.19,4.59,0.21C450.41,349.43,450.05,348.22,450.67,347.97z M447.9,352.57
					c-0.01,0.94,0.37,1.47,0.59,2.19c1.51,0.24,1.89-1.26,1.6-2.19C449.67,352.25,448.31,352.25,447.9,352.57z"/>
				<path class="st0" d="M342.18,348.58c0.88,2.49-1.02,7.5,0.21,10.36c3.09-1.44,1.38-7.78,3.21-9.96c1.82,0.13,0.9,2.05,0.8,3.58
					c-0.18,2.64,0.25,6.43-0.61,7.96c-0.96,1.76-4.65,1.96-5.38,0c-0.78-2.19,0.24-9.64,0.79-11.35c0.13-0.42,0.27-0.6,0.42-0.81
					C341.75,348.49,341.92,348.59,342.18,348.58z"/>
				<path class="st0" d="M343.2,348.99c0.33,0,0.65,0,0.99,0c0.07,2.49-0.11,6.36-0.99,8.56c-1.47-1.82,0.14-5.52,0-7.97
					C343.2,349.37,343.2,349.18,343.2,348.99z"/>
				<path class="st0" d="M442.71,350.18c0.55,8.83-0.73,18.99-0.2,30.49c0.25,5.36,0.58,10.85,0.2,16.34
					c-0.68,9.93-7.45,18.81-12.76,24.72c-3.96,4.43-9.04,9.66-14.96,13.17c-1.72,1.01-5.06,3.02-6.39,2.99
					c-1.3-0.02-3.68-1.66-5.37-2.6c-1.89-1.02-3.52-1.93-4.81-2.98c-6.58-5.49-11.94-10.92-15.76-19.16
					c-2.02-4.44-4.16-9.21-4.59-14.34c-0.47-5.65,0.07-10.98,0.21-15.74c0.19-5.78-0.2-10.52-0.21-15.95
					c-1.01,1.95-0.05,4.67-0.61,6.98c-1.14,0.83-2.88,1.08-3.56,2.39c0.92,1.77,2.68-0.5,3.4-0.2c0.31,0.97,0.31,3.2,0,4.17
					c-1.22-0.83-5.51-0.6-7.38-0.39c0.62,2.83,5.68,1.4,7.38,1.39c0.26,1.27,0.12,2.74,0,3.99c-2.05-0.68-5.77-1.16-7.19-0.2
					c0.84,0.24,2.5-0.26,3.2,0.61c0.64,0.8,0.2,2.68,0.58,3.77c1.6,0.36,1.82-0.69,3.17-0.6c0.68,1.27,0.19,3.19,0.23,4.59
					c-1.73-1.08-6.05-1.2-8,0c-0.16-2.28-1-6.25,0.62-7.76c-0.5-0.28-0.82-0.65-1-1.21c0.68-4.27-0.78-8.84,0.6-13.37
					c1.38-1.13,4.32-0.55,4.38,1.41c0.73-0.93,2.37-0.94,2.59-2.39c-1.98-0.72-5.79-0.95-7.38,0.2c-0.27-1.1-0.32-3.31,0-4.38
					c2.12,0.69,6.58,1.29,7.97-0.21c0.94-0.25,0.57,0.77,1,1c0.69-5.15-1.07-11.82-0.2-16.73c3.89-0.98,8.27-0.23,12.98,0
					C407.89,350.96,428.8,349.47,442.71,350.18z M385.66,351.16c-0.15,0.05-0.23,0.16-0.19,0.4c1.22,0.57,1.86,1.75,4,1.39
					c0.53,1.63,2.93,0.99,3.39,3c0.28,1.22-0.72,2.64-0.19,4c0.4,1.02,1.56,2.12,3.2,1.98c2.13-0.17,2.17-3.38,5.16-2.38
					c0.09,1.36-0.47,3.75-0.61,5.57c0.86,0.4,2.41-0.38,3.2,0.4c0.36,1.32,0.2,3.15,0.99,4c1.78-0.25,3.81-0.58,5.22,0.8
					c1.04-0.67,2.49-0.95,3.58-1.61c1.78,0.95,3.59,1.64,5.76,2c1.07,0.19,2.19-0.25,3.21,0.2c0.69,0.31,0.78,1.33,1.59,2.01
					c0.22,0.18,0.95,0.27,1.4,0.6c1.48,1.08,3.25,1.88,3.96,3.37c-0.26,1.56,0.35,2.21,0.83,3c0.86,0.39,1.94-0.31,3.2,0
					c1.67,0.46,6.56,4.53,6.94,5.39c1.49,3.2-0.73,6.19-2.18,8.57c0.5,2.58,0.29,5.1-0.99,6.77c-1.53,0.55-2.81,1.34-4.62,1.59
					c-2.74,2.12-3.45,6.23-7.37,7.18c-1.06,2.27-3.19,3.46-5,4.99c-0.88,0.02-1.17-0.55-2.19-0.39c-0.29,1.17,1.04,0.68,0.81,1.79
					c-1.09,0.69-2.17,1.4-2.79,2.58c-0.33,0.51-0.39,1.23-0.41,2c-0.56,1.34-1.5,1.19-2.18,2.2c-1.84,2.74,0.36,7.6-2.2,8.57
					c-1.74-0.64-3.11-1.53-3.79-3c-0.9-1.92-0.08-4-0.21-6.16c-0.05-0.86-0.45-1.31-0.38-2c0.14-1.67,1.13-3.28,1.2-5.2
					c0.01-0.6-0.2-1.38-0.2-1.97c0.05-2.08,1.38-4.38,1.8-6.98c0.58-3.73,0.4-6.38,1.77-8.99c-0.63-0.83-2.17-1.2-2.99-2.39
					c-1.24-1.84-1.4-5.53-2.56-7.75c-0.54-0.98-1.27-1.27-1.42-2.01c-0.9-4.87,3.38-7.34,3.98-11.37c-0.67-0.5-1.06-1.31-1.58-1.99
					c-1.35,0.39-1.75-0.25-3.01,0c-1.42-2.22-3.95-3.35-6.96-3.97c-0.9-2.8-2.77-1.52-5.19-1.6c-2.01-0.07-2.98-1.33-4.59-1.61
					c-0.48-1.58-1.92-2.53-2.6-4.17c-1.03-2.51-0.82-5.81-3-7.38c0.12,2.98,2.9,5.33,1.8,8.16c-1.37-0.49-1.59-2.12-2.58-2.98
					c0.75-1.54-0.59-3.05-1.42-4.17c-0.69,1.82,0.11,3.65,0.22,5.58c0.52,8.97-0.32,18.02-0.22,28.11
					c0.05,3.51-0.12,7.97,0.22,11.74c0.77,8.7,5.86,17.94,10.16,23.13c3.51,4.24,8.15,8.74,13.38,11.78
					c1.44,0.83,4.35,2.79,5.57,2.79c1.17,0.01,4.15-1.8,5.59-2.6c9.34-5.19,14.9-12.69,20.73-20.74c3.28-4.53,5.8-9.01,6.38-15.55
					c0.39-4.49,0.45-9.56,0.22-13.35c-0.64-9.45,0.11-23.39,0.17-33.3C422.44,351.11,403.86,352.18,385.66,351.16z M370.53,376.88
					c0.6,0.27,1.46,0.39,1.97,0.19c-0.01-1.08,0.16-2.41-0.39-2.96C370.19,373.74,369.84,375.83,370.53,376.88z M370.72,387.86
					c-0.56,0.18-0.45,1-0.6,1.59c0.34,0.55,1.58,0.45,2.17,0.19c-0.15-0.55,0.3-0.51,0.21-0.99
					C372.29,388.02,371.2,387.53,370.72,387.86z"/>
				<path class="st0" d="M484.19,358.54c1.24-2.32,0.72-4.92,0.8-7.77c0.62-0.44,1.25-0.89,2.38-0.8
					c0.06,4.93,1.12,12.55-3.58,13.36c-1.51-0.65-2.04-2.34-2.21-4.38c-0.34,0.65-0.42,1.56-0.57,2.41c-5.85,4.49-4.6-6.1-4.6-8.99
					c-0.4,3.22-0.22,9.85-3.6,8.99c-2.32-0.62-1.38-6.86-1.38-9.78c0.83-0.11,1.35,0.12,1.78,0.4c-0.09,1.68,0.36,2.84,0.23,4.58
					c1.13-1.12-0.56-5.05,1.39-5.39c0.72-0.01,1.36,0.09,1.36,0.81c0.45-0.79,0.86-1.5,2.22-1.41c0.19,2.7-0.08,4.68,0.19,7.19
					c2.04-1.08-0.33-6.59,2.01-7.38c1.5,0.48,0.49,3.48,0.79,5.18c0.7-1.78-0.2-6.19,2.4-5.37
					C484.41,351.97,483.56,356.17,484.19,358.54z"/>
				<path class="st0" d="M349.59,350.37c0.31-0.06,0.35,0.19,0.57,0.19c0.4,1.87,0.35,4.97-0.38,6.4
					C348.44,355.75,349.59,352.22,349.59,350.37z"/>
				<path class="st0" d="M490.97,350.37c1,1.94,0.61,5.68,0,8.38C490.14,357.37,490.45,352.31,490.97,350.37z"/>
				<path class="st0" d="M498.53,350.37c0.24-0.03,0.36,0.04,0.42,0.19c0.93,2.53,0.74,7.41,0,9.97c-1.53-1.84-0.53-6.52-0.6-9.55
					C498.27,350.62,498.53,350.61,498.53,350.37z"/>
				<path class="st0" d="M461.26,352.15c0.46,1.92,0.8,4.17,0.59,6.19c-1.42,0.97-3.01,1.76-5.38,1.82c-0.56-2.06-1.51-6.23-0.4-8
					c0.43,0.08,0.74,0.34,1.4,0.21c1.02,0.64,0.13,3.2,1.17,3.79c1.21-0.77,0.14-1.98,0.42-3.59
					C459.48,352.14,460.55,351.65,461.26,352.15z"/>
				<path class="st0" d="M365.33,353.57c-0.09,0.61,0.36,0.69,0.18,1.39c-0.7,0.6-3.45,0.6-4.16,0
					C361.03,352.84,363.73,353.75,365.33,353.57z"/>
				<path class="st0" d="M365.11,356.55c0.09,0.48,0.33,0.76,0.21,1.4c-0.85,0.82-2.11,0.35-3.8,0.59
					C359.88,356.46,363.39,355.84,365.11,356.55z"/>
				<path class="st0" d="M444.09,358.94c0.77-0.02,0.71,0.77,0.8,1.38c1.39,0.49,3.01,2.12,4.4,2.81c1.22,0.58,2.34,0.07,2.41,1.39
					c0.05,0.96-2.55,2.51-3.41,3.2c-1.09,0.83-3.4,1.95-3.59,2.97c-0.57,2.87,4.7,4.33,5.39,6.37c0.9-1.17-0.24-3.33-0.59-4.57
					c0.35-0.31,1.15-0.14,1.78-0.19c0.58,3.35,0.82,6.47,0.21,9.97c-2.64-1.21-4.25-3.46-5.98-5.58c-1.41,0.83-0.14,3.04,0,4.19
					c-0.57,0.2-0.81,0.2-1.41,0c-0.71-4.75-0.83-11.11,0-15.54c0.89-0.11,0.71,0.9,1.01,1.38c1.33-0.79,0.88-3.33,0.58-4.79
					c-1.05-0.35-0.88,1.22-1.59,0.6C443.8,361.74,443.8,359.71,444.09,358.94z M447.29,364.93c0.69,0.06,1.04-0.28,0.99-1.01
					c-0.23-0.17-0.52-0.25-0.99-0.2C447.47,364.41,446.89,364.56,447.29,364.93z"/>
				<path class="st0" d="M416.99,364.93c-1.24,0.83-3.96,0.61-5.18-0.2c-0.1-0.69,1.08-0.13,1.18-0.61
					c-2.06-1.99-6.46-1.64-8.78-3.39c1.61-1.53,5.32-1.37,7-0.4c0.89,0.54,1.73,1.8,2.79,2.41
					C415.35,363.53,417.17,363.62,416.99,364.93z"/>
				<path class="st0" d="M461.26,360.15c0.51,1.92-0.11,4.37-0.8,5.77c-0.63,0.14-0.94-0.12-1.39-0.19
					C458.79,363.44,458.28,359.06,461.26,360.15z"/>
				<path class="st0" d="M365.51,360.73c0.47,2.31,0.38,4.93,0,7.41c-0.45-0.02-0.56,0.32-1.18,0.19c-0.51-1.82,0.1-3.87-0.79-5
					c-1.23,1.03,0.52,4.41-0.81,5c-2.15-0.72-1.12-5.41-1.38-7.4C362.26,360.53,364.1,360.41,365.51,360.73z"/>
				<path class="st0" d="M457.64,360.73c1.01,0.99,0.64,4.21,0.41,5.78c-0.54,0.25-1,0.58-1.76,0.61
					C455.74,365.3,454.28,360.36,457.64,360.73z"/>
				<path class="st0" d="M355.75,361.35c0.93,2.47,0.69,6.11,0.81,9.16c0.16,3.98,0.95,7.71,0.4,10.97
					c-3.15-1.43-4.12-7.94-4.8-12.16c-0.4-2.57-1.1-5.67,0-7.78c2.42,1.03,1.31,5.59,2.2,8.16
					C355.49,367.26,352.19,360.76,355.75,361.35z"/>
				<path class="st0" d="M350.97,362.73c0.87,8.19,2.01,16.84,4,24.53c0.24,1.05,1.11,2.01,0.61,3.17
					c-6.3-3.93-7.16-13.65-8.19-21.93c-0.25-1.85-1.37-3.65-0.41-5.37c0.55,0.09,1.04,0.29,1.61,0.4c0.85,3.43,0.59,7.91,1.78,10.97
					c0.37-3.08-0.9-8.34-0.77-12.18C350.4,362.12,350.35,362.74,350.97,362.73z"/>
				<path class="st0" d="M345.38,363.53c1.53,2,1.02,5.45,1.4,8.77c0.12,1.08,0.86,2.09,0.99,3.2c0.13,0.9-0.33,1.82-0.18,2.56
					c0.22,1.23,1.28,2.24,1.58,3.41c0.61,2.43-0.03,5.33,0.19,8.17c0.26,3.2,1.38,5.86,1.43,8.77c-2.22-0.73-3.38-3.3-4.6-5.38
					c-1.2-2.03-2.75-4.24-3.38-6.79c-1.68-6.68,0.03-15.05-1.81-22.32c0.82-0.48,1.16,0.32,1.99,0.42
					c0.94,7.14,1.07,12.65,2.2,19.53c0.38-4.22,0.17-7.85-0.39-12.37c-0.39-2.88-1.74-7.31,0.39-8.18
					C345.36,363.29,345.38,363.41,345.38,363.53z"/>
				<path class="st0" d="M480.6,364.12c1.35,0.93,0.83,3.08,0.79,4.39c-0.32,9.38-3.28,20.63-8.39,26.12
					c-0.64,1.82-2.19,3.79-4.17,3.57c1.5-4.36,3.02-8.25,4.38-13.74c1.14-4.49,2.18-8.94,2.41-13.96c0.08-2.08-0.7-4.52,0.79-5.78
					c1.47,0.21,0.98,2.19,0.98,3.41c0,3.95-0.44,7.68-0.56,11.14c1.29-3.72,2.39-8.71,1.76-14.16
					C479.27,364.81,479.67,364.2,480.6,364.12z"/>
				<path class="st0" d="M423.96,367.12c-2.09-0.4-4.41,0.38-5.59-0.4c0.01-0.65,0.91-0.42,1.41-0.59c0.09-0.64-0.52-0.58-0.81-0.79
					C420.08,364.11,425.61,363.91,423.96,367.12z"/>
				<path class="st0" d="M344,402.2c-4.81-0.68-5.6-6.39-6.58-11.77c-0.53-2.84-1.6-5.68-1.79-8.16c-0.32-4.23-0.84-8.11-0.6-12.36
					c0.06-1.41-0.95-3.54,0.6-4.19c1.9,0.62,1.28,3.19,1.4,4.78c0.4,6.05,0.12,10.45,1.38,15.74c-0.06-6.27-0.55-13.84-0.6-20.9
					c2.84-2.34,2.04,0.66,2.41,3.76c0.19,1.68,0.89,2.67,0.79,3.98c-0.07,0.96-0.6,1.63-0.6,2.2c0,1.02,0.82,1.91,1,3.01
					c0.34,1.94-0.46,4.56,0,7.37c0.28,1.72,1.25,3.39,1.41,5.17C343.16,395.12,342.81,399.26,344,402.2z"/>
				<path class="st0" d="M470.03,364.53c1.82,0.62,2.5,0.46,4.39,0c1.21,3.61,0.49,8.76-0.59,12.78c-0.82,3.08-2.47,6.48-4.2,8.75
					c-1.26,1.65-3.19,3.43-5.15,3.39c0.47-3.44,2.46-6.58,3.57-10.18c1.27-4.18,1.56-8.83,1.78-14.16
					C469.77,364.81,470,364.79,470.03,364.53z M470.82,376.09c0.29-2.11,1.75-4.09,1.19-6.39
					C471.78,371.86,470.79,374.36,470.82,376.09z"/>
				<path class="st0" d="M483.39,385.47c1.09-1.45,0.9-3.33,0.8-5.38c-0.14-2.74,0.76-5.13,0.99-7.78c0.21-2.43-0.71-4.61-0.39-6.58
					c0.57-0.49,1.36-0.78,2.39-0.8c0.8,7.76-0.33,20.22-3.39,28.11c-1.23,3.13-3.16,5.71-3.99,8.57c-1.38,0.82-1.75,2.6-3.78,2.82
					c0.78-4.73,3.91-8.83,3.78-13.99c-0.01-0.83-0.44-1.71-0.38-2.57c0.01-1.05,0.56-1.76,0.79-2.82c0.57-2.64,0.22-6.33,0.8-9.95
					c0.46-3.07,1-5.53,1-9.37c0-0.38,0.23-0.42,0.19-0.8c2.63-0.74,2.57,5.12,2.39,6.79C484.19,375.82,482.72,381.57,483.39,385.47z
					"/>
				<path class="st0" d="M428.36,367.32c-0.92,0.43-2.81,0.35-2.6-1.01C426.54,365.8,428.32,365.95,428.36,367.32z"/>
				<path class="st0" d="M489.4,366.13c1.34,1.88,1.29,5.02,1.17,7.77c-0.41,8.33-0.66,15.12-0.99,21.91
					c1.95-4.65,1.16-11.02,1.59-16.73c0.36-4.3,0.92-8.04,0.21-12.36c0.67-0.03,1.28-0.8,1.8-0.4c1.12,1.05,0.94,3.03,0.99,4.59
					c0.31,10.67-0.57,23-2.58,32.11c-0.5,2.23-1.16,4.15-2.01,6.18c-0.75,1.77-1.11,4.41-3.42,4.79c1.56-9.88-0.63-20.44,1.22-30.9
					c0.13-0.87,0.69-1.68,0.82-2.61c0.55-4.71-0.87-9.7,0.37-13.96c-0.04-0.3,0.21-0.32,0.21-0.6
					C489.1,365.86,489.12,366.13,489.4,366.13z"/>
				<path class="st0" d="M333.81,366.31c1.14,3.05,0.12,5.83,0.21,8.58c0.03,1.06,0.73,2.2,0.79,3.4c0.1,1.98-1.01,3.97-0.79,5.78
					c0.36,3.24,2.79,4.43,2.38,7.57c-0.15,1.3-1.03,2.12-1.21,3.58c-0.28,2.52,1.63,4.85,2.01,7.56c0.47,3.53-0.76,6.17-1.18,9.78
					c-1.98-1.16-2.59-3.57-3.42-5.57c-1.34-3.32-2.88-6.7-3.79-10.77c-1.06-4.86-1.36-9.74-1.6-14.96
					c-0.23-5.49-0.44-10.51-0.17-14.96c1.43,0.02,2.18,0.75,3.19,1.21c0.35,11.2,0.42,23.65,2.96,33.68
					c0.59-2.17-0.14-4.52-0.36-6.96c-0.82-7.97-1.54-16.25-1.21-24.55c0.03-1.51-0.45-2.3,0.38-3.39
					C332.85,366.14,333.02,366.14,333.81,366.31z"/>
				<path class="st0" d="M414.58,366.72c-0.28,1.12-2.77,0.6-2.77-0.4C412.58,365.9,414.19,366.11,414.58,366.72z"/>
				<path class="st0" d="M459.66,366.92c0.36,0.62,0.22,2.16,0,2.79c-1.16,0.56-2.75,1.21-3.78,0.8c-0.18-1.1,0.32-1.54,0.19-2.6
					C457.12,367.5,458.45,366.57,459.66,366.92z"/>
				<path class="st0" d="M326.05,367.91c1.12,2.73,0.05,5.38-0.21,8c-0.29,3.05,1.22,4.98,1.01,7.97c-0.1,1.08-0.9,1.97-1.01,2.98
					c-0.19,1.58,0.29,3.86,0.8,5.38c0.23,0.69,0.85,1.28,0.99,2.02c0.24,1.17-0.08,2.69,0,3.95c0.21,2.82,1.3,5.35,0.39,8.19
					c-0.57,0.73-0.47-0.84-1.18-0.59c0.52,4.56,1.91,12.96,2.77,17.94c0.3,1.63,0,2.91-0.39,4.38c-2.3,0.04-3.34-2.78-4-4.58
					c-0.71-2.08-1.63-4.5-2.18-6.57c-3.79-14.34-6.92-32.18-5.78-48.83c4.47,0.23,2.82,6.68,2.99,10.95
					c0.38,9.54,0.23,21.84,3.59,30.3c0.62-4.88-0.97-9.73-1.38-14.75c-0.78-9.08-0.47-16.17-0.23-25.53
					C323.77,368.96,324.59,368.12,326.05,367.91z"/>
				<path class="st0" d="M365.11,378.48c-1.78-0.91-1.78-3.65-2.18-5.98c1.17-0.23,2.46-2.02,3.21-0.4
					C365.78,374.23,366.14,377.03,365.11,378.48z"/>
				<path class="st0" d="M456.07,371.5c1.23,0.27,1.38,0.73,2.58,0.21c-0.47,2.56-1.28,4.83-2.58,6.57
					C455.59,376.73,456.16,373.47,456.07,371.5z"/>
				<path class="st0" d="M430.16,377.31c1.1-0.09,1.49,0.62,1.57,1.58c-0.18,0.09-0.34,0.17-0.39,0.39
					C430.02,379.54,430.1,378.41,430.16,377.31z"/>
				<path class="st0" d="M444.3,381.67c0.7,0.18,0.45,1.3,0.79,1.8c2.03,1.01,3.47,3.49,5.99,3.39c3.25,3.68-6.58,4.36-6.78,8.18
					c-1.23-0.24-0.38-2.48-0.21-3.19c-0.3-1.06-0.79-2.47,0.21-3c0.85-0.19,0.33,0.97,1,1.01c1.13-0.36,1.17-3.96,0.2-4.59
					c-0.9-0.24-0.69,1.23-1.41,0.61C443.81,384.88,443.63,382.38,444.3,381.67z M447.48,388.44c0.79,0.06,1.17-0.3,1.24-0.98
					c-0.37-0.34-0.76-0.61-1.43-0.6C447.34,387.43,447.19,388.15,447.48,388.44z"/>
				<path class="st0" d="M372.29,394.42c-0.36,1.39-2.26,1.19-1.76,3.39c2.05-0.94,1.54-4.42,5.37-3.56
					c2.68,0.82,0.6,5.12,1.78,6.77c-0.86,0.23-2.42,0.69-3.38,0.19c0.51-1.1,2.52-2.35,1.21-3.99c-1.98-0.12-1.83,2.72-3.39,3.39
					c-2.99,1.28-3.5-3.16-3-6.19C369.84,394.06,371.57,394.18,372.29,394.42z"/>
				<path class="st0" d="M443.9,399.22c0.86-0.13,0.73,0.72,0.99,1.18c1.23,0.38,2.4,0.8,3.83,1.01c0.92,0.09,0.95-0.88,1.76-0.39
					c-0.02,1.75-0.61,2.97-1.2,4.18c-1.02,0.49-1.21-1.07-2.19-1.21c-0.6,0.27-0.82,0.95-0.82,1.82c0.52,0.54,1.97,0.17,2.44,0.79
					c-0.25,1.57-0.8,2.83-1.62,3.8c-1.26-1.61-4.17-2.57-6.21-2.21c0.35-1.72,0.86-3.3,1.99-4.19c0.78,0.04,0.24,1.41,1.21,1.21
					c0.82-0.05,0.71-1.05,1.01-1.6c-0.34-0.91-1.34-0.01-2.22-0.19C443.26,402.05,443.46,400.49,443.9,399.22z"/>
				<path class="st0" d="M455.88,401.02c1.02-0.12,1,0.85,1.37,1.38c6.5-2,9.77,3.39,14.35,5.59c3.26-1.83,9.43-1.7,10.4,2.41
					c-1.31,0.92-2.49-0.88-4.2-0.2c0.5,1.57,4.24,3.44,2.41,6.18c-2.32-1.19-3.91-3.4-6.77-2.39c-3.88,1.36-2.13,7.48-0.62,10.57
					c-2.73,1.03-6.37-2.43-6.77-5.78c-0.17-1.63,0.78-3.31,0.59-4.79c-0.2-1.64-3.13-4.1-4.36-5.38c-1.68-1.71-3-3.34-4.63-4.99
					c-0.1,1.79,1.2,3.86,1.2,6.18c-1.36,0.94-4.76,0.69-5.98,1.2c-1.31-0.54-1.45-4.34-0.59-5.18c1.21-0.22,0.82,1.15,1.41,1.58
					C456.02,406.47,455.1,403.2,455.88,401.02z M468.22,410.39c0.67-0.82-0.47-1.16-0.99-1.41
					C467.32,409.7,467.57,410.25,468.22,410.39z"/>
				<path class="st0" d="M363.94,401.41c-1.37,1.9-3.42,3.07-5.2,4.57c-1.72,1.47-3.24,3.19-4.78,4.81
					c2.28,5.98,0.57,13.96-6.58,12.75c0.54-2.23,2.9-3.73,2.6-6.17c-0.19-1.38-1.06-2.36-2.02-3.59c-2.45-1.06-5.65-1.14-8.75-0.61
					c-0.54-3.02,2.57-4.05,5.39-4.38c-1.16-1.7-4.36,0.53-5.57-0.61c0.58-4.69,8.98-3.9,10.95-0.99c1.9-1.04,4.78-5.14,7.18-5.58
					C359.23,401.23,361.89,402.18,363.94,401.41z M352.17,408.59c0.45,0.36,1.08-0.43,1.21-1.01
					C352.84,407.8,352.24,407.92,352.17,408.59z"/>
				<path class="st0" d="M379.69,410.57c-1.1,0.15-1.18-0.68-1.8-0.97c-1.38,0.27-2.83,0.47-4.16,0.79
					c-0.52,0.71,0.33,1.56-0.4,1.99c-1.06-0.36-1.21-1.76-1.61-2.78c-0.55-1.38-1.06-2.71-1.38-4.4c0.25-0.21,0.39-0.54,0.58-0.77
					c0.95-0.17,1.31,0.26,1.8,0.55c-0.73,0.86-0.84,2.8,0.19,3.41c0.73,0.06,1.03-0.31,1.18-0.8c0.27-0.9-0.67-0.64-0.77-1.2
					c0.01-1.2,1.62-1.14,2.37-0.59c0.11,0.76-0.9,0.4-0.6,1.39c0.24,0.78,1.67,0.31,1.99,0c0.24-1.94-1.01-2.41-1.99-3.2
					C378.24,400.85,379.35,408.37,379.69,410.57z"/>
				<path class="st0" d="M366.14,405.2c0.28,1.69,0.75,3.2,0.78,5.19c-2.93-0.14-3.84-3.33-3.37-6.2
					C364.25,403.96,365.44,404.77,366.14,405.2z"/>
				<path class="st0" d="M362.35,411.15c0.01,1.05,0.13,2.01,0.38,2.83c0.95,0,0.53-1.32,1.21-1.6c1.4,0.16,2.75,0.45,2.97,1.8
					c2.35-1.96,4.12,1.62,2.8,3.98c-3.5-0.83-7.24-1.41-10.17-2.8c-0.39-1.73,0.03-2.68-0.2-4.38
					C360.23,410.44,361.51,411,362.35,411.15z"/>
				<path class="st0" d="M457.87,410.79c1.51-0.35,2.13,0.86,1.61,1.99C457.83,413.63,456.61,411.79,457.87,410.79z"/>
				<path class="st0" d="M456.29,412.58c-0.59,0.94-2.52,1.14-2.81-0.2C453.56,410.68,456.31,410.92,456.29,412.58z"/>
				<path class="st0" d="M451.9,411.59c0.05,0.46,0.29,0.73,0.17,1.38c-0.33,0.34-0.83,0.49-1.59,0.4
					C449.34,412.49,450.36,410.75,451.9,411.59z"/>
				<path class="st0" d="M459.48,414.37c-0.21,0.44,0.1,1.8,0,2.79c-3.79,0.71-6.71,0.59-10.38,0.8c-0.54-0.71-0.78-2.37-0.38-3.39
					C452.5,413.94,455.57,413.66,459.48,414.37z"/>
				<path class="st0" d="M386.65,421.96c-2.14,0.37-5.06,1.35-5.36,4.17c-1.75-0.56-2.55-2.12-3.21-3.79
					c2.01,0.45,4.19-1.41,5.39-2.98c-0.41-1.08-1.24-1.8-2.78-1.8C381.78,413.12,385.82,420.46,386.65,421.96z"/>
				<path class="st0" d="M371.51,420.93c-3.19,0.46-7.99-1.34-11.96-1.98c0.04-0.66-0.14-1.63,0.19-1.98
					c2.4-0.19,4.66,0.82,7.18,1.38C368.87,418.8,372.11,418.65,371.51,420.93z"/>
				<path class="st0" d="M453.29,424.93c-0.51,0.39-0.99,0.75-2.01,0.59c-0.63-0.78-0.51-1.12-0.6-2.38
					c-0.83,0.22,0.08,2.2-1.18,2.01c-0.27-0.72-0.35-2.71,0-3.41c0.94-0.27,0.44,0.89,0.99,1c0.41-0.43-0.12-1.56-0.8-1.6
					c-1.67,0.35-0.87,3.12-1.4,4.59c-0.94,0.1-1.61-0.09-2.17-0.39c0-2.47-0.28-5.19,0.99-6.4
					C451.04,417.1,454.16,419.69,453.29,424.93z"/>
				<path class="st0" d="M460.46,424.14c-1.14,0.32-1.34-0.06-2.01-0.6c-0.53-0.08-0.17,0.75-0.58,0.81
					c-1.49,0.05-0.48-2.69-0.79-3.2c-1.34,0.33-0.13,3.23-0.79,4.2c-0.7,0.32-1.74,0.23-2.21-0.19c-0.88-4.04,0.11-7.62,4.57-6.61
					C459.78,419.78,461.08,421.83,460.46,424.14z"/>
				<path class="st0" d="M359.34,420.76c0.06,0.45,0.3,0.74,0.2,1.38c-0.36,0.55-1.65,0.55-2,0
					C357.29,420.76,358.28,420.2,359.34,420.76z"/>
				<path class="st0" d="M364.33,421.36c0.27,0.37,0.53,0.78,0.59,1.38C363.71,424.74,361.53,421.05,364.33,421.36z"/>
				<path class="st0" d="M369.11,423.54c-0.75,0.39-1.47,0-1.99-0.39C366.98,421.56,369.72,421.49,369.11,423.54z"/>
				<path class="st0" d="M392.04,428.12c-0.74,0.14-0.85-0.35-1.58-0.19c-1.54,1.34-3.93,1.82-4.17,4.39
					c-1.66-1.49-7.28-5.26-2.82-6.8c0.39,0.88-0.45,2.67,0.82,3.01c0.93-0.08,1.38-0.64,1.8-1.2c0.07-0.88-0.92-0.68-1.39-1
					c0.09-0.99,0.52-1.59,1.8-1.4c-0.08,0.68-0.03,1.22,0.38,1.4c0.75,0.03,1.15-0.31,1.4-0.81c0.15-1.47-1.43-1.23-2.19-1.79
					c0.25-0.62,0.6-1.12,1.38-1.19C388.97,424.44,391,425.81,392.04,428.12z"/>
				<path class="st0" d="M374.51,423.15c0.12,0.6-0.22,0.74-0.21,1.2c-0.39,0-0.79,0-1.19,0C372,423.43,373.63,422.02,374.51,423.15
					z"/>
				<path class="st0" d="M357.96,424.74c0.73,2.08-0.94,4.54,0.2,6.78c3.67,2.07,2.72-3.58,3.57-5.59c0.8-0.38,1.75,0.06,2.4,0.4
					c-0.61,1.98,0.8,6.65-1.4,7.97c-2.26,1.38-5.79,0.08-7.56-1.58c-0.02-3.06-0.06-6.17,0.98-8.18
					C356.97,424.4,357.17,424.84,357.96,424.74z"/>
				<path class="st0" d="M429.33,425.52c0.53,2.3,2.23,3.35,3.82,4.61c-0.76,0.97-1.4,2.05-2.8,2.38c-0.5-1.64-1.75-2.52-2.61-3.78
					c-1.45,0.61-2.32,1.76-2.99,3.19c-0.73,0.2-0.58-0.52-1.2-0.4c-0.64-0.12-0.52,0.53-1,0.58c-0.27,3.69-0.6,6.15-1.38,9.19
					c-3.26-0.57-5.02-3.39-8.38-3.19c1.1-1.36,2.45-2.47,4.39-3c0.5,0.62-0.69,1.28,0.22,1.79c1.64-0.73,3.46-1.28,3.97-3.17
					c0.17-0.69-0.74-0.34-0.8-0.81c0.58-1.21,1.38-2.23,2.98-2.39C425.29,428.66,426.71,426.48,429.33,425.52z M419.39,437.9
					c0.31,0.18,0.57,0.48,0.98,0.61c0.37-0.43,0.54-1.05,0.6-1.8C420.08,436.74,419.54,437.14,419.39,437.9z"/>
				<path class="st0" d="M367.52,426.92c0.43,2.25-1.61,6.06,0.99,6.19c2.53,0.13,1.61-3.83,2.41-5.78c0.97-0.35,1.38,0.13,2.2,0.4
					c-0.03,2.62,0.9,4.89-0.2,6.78c-1.21,2.05-5.85,1.89-7.4,0.4c-1.68-1.63-0.32-5.02-0.59-7.98
					C365.64,426.4,366.74,426.53,367.52,426.92z"/>
				<path class="st0" d="M359.55,427.12c0.19,0,0.39,0,0.6,0c0.3,1.21,0.21,2.47-0.4,3.79C358.6,430.15,359.34,428.41,359.55,427.12
					z"/>
				<path class="st0" d="M333.21,427.93c0.23,2.57-2.07,2.57-4.15,2.79c0.12,0.73,0.5,1.21,0.38,2.2c-0.46,0.32-1.38,0.88-1.99,0.42
					c-0.68,0.27-0.74,1.1-1.21,1.58c-0.98-0.18-1.48-1.46-1.39-2.58c0.24-3.59,5.05-2.56,6.97-4.79
					C332.52,427.42,332.78,427.75,333.21,427.93z"/>
				<path class="st0" d="M443.9,428.12c0.08,2.86,1.17,5.71,0.4,8.19c-2.14,1.09-5.14,1.7-7.58,1.39c-1.65-1.42-1.82-6.06,1.6-5.59
					c0.22,0.54,0.12,1.35,0.62,1.62c0.86,0.09,0-1.57,0.56-1.8c1.04-0.15,0.53,1.2,1.22,1.4c0.69-1.04-0.22-4.05,0.16-5.4
					C442.03,427.53,443.09,427.53,443.9,428.12z M440.3,435.1c0.73,0.08,1.09,0.53,2.03,0.41
					C442.33,434.73,440.47,434.44,440.3,435.1z"/>
				<path class="st0" d="M376.49,428.12c0.6,1.46-0.42,4.53,0.81,5.4c1.26-0.87-0.28-3.31,1.19-3.78c0.66,1.13-0.34,3.27,0.41,3.98
					c0.99-0.34,0.42-2.23,1.18-2.81c0.96,0.05,1.67,0.34,1.99,1.01c-0.55,1.49,0,2.9-0.79,3.99c-1.32,1.75-5.65,0.86-6.58-0.61
					c-1.23-1.92-0.07-4.24-0.62-6.96C374.84,428.1,375.81,427.82,376.49,428.12z"/>
				<path class="st0" d="M448.49,436.71c-1.57-1.98-1.97-5.07-2.37-8.17c0.63-0.29,1.77-0.29,2.37,0c0.29,1.44,0.66,2.8,1.01,4.19
					c2.54,0.95,2.7-2.34,1.99-4.19c2.18-2.71,3.97,3.28,3.4,5.77C454.23,436.95,450.8,437.1,448.49,436.71z"/>
				<path class="st0" d="M458.05,427.93c1.78,0.06,2.08,3.58,1.44,4.8C458.18,431.93,458.22,429.84,458.05,427.93z"/>
				<path class="st0" d="M368.93,428.12c0.14,0.13,0.31,0.23,0.6,0.22c-0.08,1.41-0.02,2.91-0.6,3.76
					C367.92,431.74,368.07,428.55,368.93,428.12z"/>
				<path class="st0" d="M450.48,428.34c0.54,0.71,0.87,2.5,0.37,3.59c-1.59-0.06-1.19-2.13-1.57-3.39
					C449.53,428.27,450,428.32,450.48,428.34z"/>
				<path class="st0" d="M395.86,431.92c1.5,0.27,2.27,1.3,3.36,1.99c-0.18,0.57-0.9,0.56-0.99,1.19c0.28,1.25,1.33,1.75,2.59,2
					c0.74,0,0.89-0.58,0.8-1.4c2.01,0.57,3.66,1.52,5.19,2.59c0.38,1.23,0.1,3.06,1.4,3.4c1.6-0.8,0.17-1.89,0-3.19
					c1.39,0.1,2.48,0.55,3.78,0.79c-0.49,2.35-1.99,5.58-0.8,7.78c-3.67,0.74-10.25-2.52-5.59-5.38c-0.61-1.25-0.88-2.84-1.58-4
					c-4.35-0.3-5.85,3.2-9.19,3.2C394.59,438.13,396.43,435,395.86,431.92z M397.64,438.3c0.42,0.34,1.23-0.24,1.77-0.4
					C399.34,436.72,397.31,436.91,397.64,438.3z M406.41,443.49c-0.27,1.31,0.89,2.1,1.61,1.79c0.43-0.33,0.57-1.65,0.21-2.2
					C407.45,442.65,406.84,443.04,406.41,443.49z"/>
				<path class="st0" d="M331.82,435.71c0.02,0.64-0.48,1.66-0.4,2.59c-1.29,0.15-1.24-0.99-1.36-1.99
					C330.46,435.94,331.1,435.77,331.82,435.71z"/>
				<path class="st0" d="M494.95,438.51c0.71-0.11,1.15,0.03,0.99,0.79C495.48,439.76,494.71,439.37,494.95,438.51z"/>
				<path class="st0" d="M499.74,438.91c0.13,0.99-0.47,1.36-1.2,0.97C498.5,439.12,498.94,438.82,499.74,438.91z"/>
				<path class="st0" d="M493.34,441.29c0.16,0.98-0.47,1.24-1.15,1.39C491.1,441.97,492.37,440.52,493.34,441.29z"/>
				<path class="st0" d="M328.22,443.49c-0.43,0.23-0.79,0.5-1.58,0.4c-0.14-0.42-0.61-0.79-0.21-1.2
					C326.8,442.5,328.33,442.57,328.22,443.49z"/>
				<path class="st0" d="M496.75,443.49c0.33,0.94-1.11,1.09-0.98,0.2C496,443.5,496.29,443.41,496.75,443.49z"/>
				<path class="st0" d="M452.07,445.27c-0.27,0.31-1.15,0.31-0.99-0.39C451.36,444.56,452.24,444.58,452.07,445.27z"/>
				<path class="st0" d="M346.18,444.88c0.76,1.2,1.03,1.81,1.01,3.6C345.59,448.53,343.85,445.1,346.18,444.88z"/>
				<path class="st0" d="M324.47,445.27c0,0.62-0.62,0.61-1.21,0.61c0-0.21,0-0.42,0-0.61
					C323.67,444.85,323.83,445.38,324.47,445.27z"/>
				<path class="st0" d="M339.21,448.26c-0.72-1.32,0.87-4.32,1.97-2.58C340.88,446.9,340.88,448.43,339.21,448.26z"/>
				<path class="st0" d="M342.39,445.07c0.33,0,0.67,0,1,0c0.4,0.96,1.12,3.53-0.4,3.61C341.63,448.36,342.04,446.18,342.39,445.07z
					"/>
				<path class="st0" d="M470.03,448.08C466.54,449.92,468.87,444.25,470.03,448.08L470.03,448.08z"/>
				<path class="st0" d="M474.01,448.08c0.07,1-2.06,1.08-2.19,0.17C471.85,447.22,473.94,446.85,474.01,448.08z"/>
				<path class="st0" d="M354.57,448.48c-0.79,1.35-1.7,2.56-3.6,2.76C350.44,449.47,352.65,447.83,354.57,448.48z"/>
				<path class="st0" d="M357.36,449.47c-0.15,0.88-1.14,2.56-2.78,2.58c-0.09-0.18-0.2-0.35-0.41-0.38
					C354.4,450.22,356.31,448.22,357.36,449.47z"/>
				<path class="st0" d="M360.34,449.85c-0.17,2.04-1.03,4.15-2.98,3.81C357.49,452.4,358.43,448.68,360.34,449.85z"/>
				<path class="st0" d="M329.23,449.65c0.32,0,0.67,0,1.01,0c-0.05,0.25,0.02,0.35,0.19,0.42
					C330.35,450.75,328.88,450.61,329.23,449.65z"/>
				<path class="st0" d="M363.12,450.07c0.36,1.29,1.99,3.86-0.39,4.17C362.67,452.96,360.88,450.1,363.12,450.07z"/>
				<path class="st0" d="M470.63,450.07c0.33,0.41-0.06,1.27-0.38,1.6c-0.23,0-0.44,0-0.63,0c-0.27-0.26-0.19-0.87-0.19-1.41
					C470.04,450.41,470,449.92,470.63,450.07z"/>
				<path class="st0" d="M369.31,450.26c0.14,0,0.27,0,0.41,0c1.3,0.62,1.4,2.43,2.18,3.6c-0.29,0.27-0.48,0.71-1.17,0.6
					C370.17,453.24,368.93,451.76,369.31,450.26z"/>
				<path class="st0" d="M365.73,450.47c0.32,0,0.67,0,1,0c0.35,1.3,1.34,2.99,0.98,4.38c-0.19,0-0.37,0-0.59,0
					C366.15,453.98,365.4,451.93,365.73,450.47z"/>
				<path class="st0" d="M442.11,450.67c0,0.19,0,0.38,0,0.57c-0.28,0.31-1.12,0.31-1.38,0
					C440.92,450.81,441.63,450.24,442.11,450.67z"/>
				<path class="st0" d="M324.85,450.67c0.57-0.04,1.02,0.04,1.2,0.38c0.03,0.63-0.5,0.68-1.01,0.8
					C324.8,451.35,324.59,451.25,324.85,450.67z"/>
				<path class="st0" d="M391.66,453.85c-1.5,0-2.55-2.23-1.78-3.18C391.15,451.04,391.6,452.27,391.66,453.85z"/>
				<path class="st0" d="M386.29,450.87c0.12,0,0.24,0,0.36,0c0.93,0.34,1.73,2.54,0.81,3.38
					C386.49,453.8,385.96,451.94,386.29,450.87z"/>
				<path class="st0" d="M474.42,451.06c1.95-0.25,1.77,1.91,0.41,2.2C474.74,452.49,473.78,451.93,474.42,451.06z"/>
				<path class="st0" d="M463.63,452.05c0.08,1.02-0.42,1.43-0.99,1.8c-0.67,0.08-0.58-0.6-0.96-0.79
					C461.85,452.27,462.52,451.94,463.63,452.05z"/>
				<path class="st0" d="M347.6,453.66c-0.4,0.62-1.38,1.43-2.22,0.99C345.28,453.61,347.2,452.32,347.6,453.66z"/>
				<path class="st0" d="M443.9,453.66c0.08,0.79-0.08,1.36-0.6,1.58c-0.63,0.17-0.6-0.31-0.97-0.39
					C442.19,453.74,443.04,453.2,443.9,453.66z"/>
				<path class="st0" d="M472.22,454.07c0.28,0.58,0.09,0.88-0.21,1.36c-0.76,0.11-1.26-0.05-1.58-0.4
					C470.61,454.31,471.37,454.14,472.22,454.07z"/>
				<path class="st0" d="M330.44,454.25c0.87-0.1,1.29,0.31,1.2,1.19C330.66,455.6,330.44,455.03,330.44,454.25z"/>
				<path class="st0" d="M350.97,454.46c0.15,1.12-0.94,2.61-2.39,2.78C348.73,455.7,349.7,454.94,350.97,454.46z"/>
				<path class="st0" d="M334.82,455.03c0.62-0.16,0.62,0.34,0.99,0.4C335.74,455.86,334.41,455.8,334.82,455.03z"/>
				<path class="st0" d="M466.25,455.24c-0.07,0.93-0.52,1.49-1.02,1.99C463.38,456.89,464.69,454.31,466.25,455.24z"/>
				<path class="st0" d="M383.46,460.43c-2.51,0.53-3.16-2.54-4.56-3.8C380.75,454.81,382.78,458.58,383.46,460.43z"/>
				<path class="st0" d="M354.57,456.25c0.01,1.5-0.33,2.62-1.61,2.79C352.42,457.8,352.87,455.94,354.57,456.25z"/>
				<path class="st0" d="M357.96,456.86c0.53-0.16,0.4,0.38,0.79,0.38c-0.47,0.95-0.17,2.61-0.99,3.2
					C356.15,459.93,357.51,457.7,357.96,456.86z"/>
				<path class="st0" d="M361.53,456.86c0.36,0,0.7,0,1,0c0.7,1.01,1.46,4.19,0,4.99C361.03,461.01,361.64,458.42,361.53,456.86z"/>
				<path class="st0" d="M378.68,460.23c-0.12,0.47-0.65,0.53-0.8,0.99c-2.22-0.03-3.52-2.86-2.98-4.37
					C376.87,457.24,377.42,459.1,378.68,460.23z"/>
				<path class="st0" d="M372.91,461.65c-2.06,0.17-3.54-4.08-1.4-4.42C372.16,458.43,373.42,459.99,372.91,461.65z"/>
				<path class="st0" d="M366.54,457.65c0.25,0,0.51,0,0.8,0c0.51,0.88,1.06,2.71,0.58,4C365.95,461.93,366.18,459.01,366.54,457.65
					z"/>
				<path class="st0" d="M398.23,457.84c1.38,0.28,2.27,1.08,2.59,2.39C399.5,460.79,397.84,459.05,398.23,457.84z"/>
				<path class="st0" d="M446.88,458.24c0.17,1.53-2.12,1.53-1.99,0C445.36,457.83,446.5,457.63,446.88,458.24z"/>
				<path class="st0" d="M440.72,458.24c0.31,0.33,0.31,1.47,0,1.78c-0.58,0-0.85-0.34-1.4-0.38
					C439.2,458.58,439.85,458.28,440.72,458.24z"/>
				<path class="st0" d="M397.25,460.43c-1.38,0.12-2.01-0.54-2.21-1.59C395.94,458.46,397.07,459.41,397.25,460.43z"/>
				<path class="st0" d="M436.53,459.05C436.32,463.3,432.65,458.01,436.53,459.05L436.53,459.05z"/>
				<path class="st0" d="M461.85,459.23c0.15,0.75-0.14,1.07-0.4,1.4C459.71,460.67,460.28,458.24,461.85,459.23z"/>
				<path class="st0" d="M419.39,459.64c1.28-0.16,0.76,1.46,1.58,1.79C420.31,462.26,419.19,460.88,419.39,459.64z"/>
				<path class="st0" d="M416.19,460.23c1.58,0.09,2.43,2.53,1.78,3.59C416.6,463.48,415.72,461.79,416.19,460.23z"/>
				<path class="st0" d="M424.34,461.03c1.27,0.96,3,2.49,2.6,4.37C425.88,465.06,423.77,463.07,424.34,461.03z"/>
				<path class="st0" d="M412,461.23c1.5,0.09,2.68,2.43,1.79,3.6C412.65,464.26,411.68,462.6,412,461.23z"/>
				<path class="st0" d="M408.39,461.85c1.62,0.55,2.99,2.3,2.61,4.19C409.71,465.19,407.72,463.31,408.39,461.85z"/>
				<path class="st0" d="M441.69,462.22c0.2,0.63-0.15,0.76-0.39,1.02c-0.52-0.03-0.76-0.31-0.77-0.82
					C440.75,462.2,441.21,462.2,441.69,462.22z"/>
				<path class="st0" d="M380.28,462.43c0.2,0,0.4,0,0.6,0c1.25,0.43,2.3,2.67,1.38,3.99C381.06,465.59,380.01,464.13,380.28,462.43
					z"/>
				<path class="st0" d="M359.74,463.82c0.14,1.35,0.27,4.2-1.58,4.19C357.83,466.51,357.8,463.69,359.74,463.82z"/>
				<path class="st0" d="M346.78,464.42c0.11,0.77-0.36,0.98-0.19,1.78c-0.61-0.05-1-0.32-1.22-0.8
					C345.42,464.68,346.16,463.95,346.78,464.42z"/>
				<path class="st0" d="M404.81,464.63c1.61-0.26,2.32,1.37,2.2,2.19C405.74,467.36,405.02,465.79,404.81,464.63z"/>
				<path class="st0" d="M422.56,464.63c1.1,0.72,2.46,2.16,2.2,3.58c-1.51-0.21-2.63-1.89-2.6-3
					C422.07,464.78,422.56,464.94,422.56,464.63z"/>
				<path class="st0" d="M434.75,465.4c0,0.63,0,1.23,0,1.8c-0.69,0.1-1.13-0.08-1.6-0.19C433.2,466.05,433.69,465.44,434.75,465.4z
					"/>
				<path class="st0" d="M420.97,468.61c-0.99-0.14-2.06-1.25-1.81-1.98C420.08,466.25,421.23,467.19,420.97,468.61z"/>
				<path class="st0" d="M480.8,466.42c0.51,0.09,0.92,0.28,1.21,0.6c0.09,1.06-1.11,1.3-1.8,0.99
					C480.32,467.41,480.63,466.97,480.8,466.42z"/>
				<path class="st0" d="M334.2,467.2c0.47,0.86,0.58,2.41,0,3.21c0.42,0.84,1.88,1.52,1,2.99c-0.9,0.06-1.58-0.16-2.18-0.42
					c-0.23-0.84-0.32-1.8-1-2.19c0.31-1.3,1.05-1.79,0.6-3.39C333.26,467.47,333.47,467.06,334.2,467.2z"/>
				<path class="st0" d="M341.81,467.8c-0.12,0.77-0.26,1.5-0.82,1.81c-0.64,0.17-0.6-0.32-0.99-0.4
					C339.78,467.88,340.8,467.31,341.81,467.8z"/>
				<path class="st0" d="M471.22,469.01c0.26,0.87-0.52,1.85-1.78,1.79c-0.17-0.42-0.51-0.68-0.41-1.4
					C469.75,469.29,470.23,468.88,471.22,469.01z"/>
				<path class="st0" d="M486.16,470c0.13,1.14-0.69,1.43-1.57,1.61c-0.27-0.33-0.52-0.67-0.4-1.4
					C484.86,470.15,485.56,469.48,486.16,470z"/>
				<path class="st0" d="M455.28,470.8c-0.05,1.02-1.23,1.77-2.2,1.2C452.66,470.48,454.55,470,455.28,470.8z"/>
				<path class="st0" d="M476.41,470.8c-0.36,0.97-1.14,1.52-2.4,1.59c-0.14-0.73-0.06-0.5-0.18-1.39
					C474.53,470.6,475.84,470.26,476.41,470.8z"/>
				<path class="st0" d="M367.34,471c0.88,0.27,0.3,0.84,0.37,1.8c-0.9,0.1-1.17-0.41-1.76-0.6
					C366.18,471.62,366.77,471.32,367.34,471z"/>
				<path class="st0" d="M448.49,471.81c-0.47,0.99-0.82,2.1-2.37,2C445.3,471.88,447.36,470.89,448.49,471.81z"/>
				<path class="st0" d="M353.96,472c0,0.53,0,1.06,0,1.6c-1.28-0.1-2.07-0.71-2.39-1.79C352.27,471.28,353.34,471.8,353.96,472z"/>
				<path class="st0" d="M479.6,472.21c0.58,0.03,1.29-0.12,1.59,0.18c0.2,0.94-0.45,1.02-0.8,1.42
					C479.83,473.58,479.64,472.93,479.6,472.21z"/>
				<path class="st0" d="M420.97,472.8c0.03,1.76-2.56,2.75-2.99,0.8C418.46,472.89,419.87,472.24,420.97,472.8z"/>
				<path class="st0" d="M340.01,472.99c0.2,0.5,0.46,0.86,0.39,1.59c-0.83,0.05-1.66,0.07-2-0.39
					C338.68,473.54,339.04,472.97,340.01,472.99z"/>
				<path class="st0" d="M346.6,474.19c0.05,0.87-0.58,1.03-0.61,1.79c-0.98-0.13-1.34-0.92-1.99-1.4
					C344.34,473.66,345.65,474.11,346.6,474.19z"/>
				<path class="st0" d="M440.3,474.4c-0.06,0.99-0.57,1.54-1.36,1.79c-0.59-0.28-1.06-0.68-1-1.61
					C438.43,474.16,439.79,473.68,440.3,474.4z"/>
				<path class="st0" d="M490.76,474.79c-0.44,1.09-1.56,1.48-2.78,1.82C487.57,474.72,489.59,473.25,490.76,474.79z"/>
				<path class="st0" d="M381.47,474.79c0.12,0.48,0.3,0.89,0.21,1.61c-0.74,0.27-2.35,0.38-2.59-0.42
					C379.45,475.13,380.24,474.74,381.47,474.79z"/>
				<path class="st0" d="M374.9,476.98c-0.78,0.81-2.02-0.37-3-0.58C372.29,474.32,374.86,475.43,374.9,476.98z"/>
				<path class="st0" d="M449.1,476.19c-0.06,0.22,0.04,0.35,0.19,0.42C448.77,480.28,445.51,475.06,449.1,476.19z"/>
				<path class="st0" d="M457.87,476.61c-0.15,0.9-0.87,1.25-1.4,1.77c-0.66-0.13-0.78-0.8-0.82-1.6
					C456.16,476.35,457.33,475.88,457.87,476.61z"/>
				<path class="st0" d="M421.78,477.19c0.66,0.06,1.6-0.16,1.98,0.2c0.11,0.91-0.11,1.49-0.59,1.79
					C421.82,479.39,421.34,478.15,421.78,477.19z"/>
				<path class="st0" d="M368.32,478.38c-0.03,0.62,0.1,1.47-0.17,1.8c-0.94,0.04-1.42-0.36-2.01-0.61
					C366.1,478.4,367.38,478,368.32,478.38z"/>
				<path class="st0" d="M375.69,481.18c-0.36,1.09-2.45,0.34-2.37-0.8C374.46,479.58,375.16,480.36,375.69,481.18z"/>
				<path class="st0" d="M451.9,480.98c-0.19,0.96-1.66,1.29-2.41,0.6C449.27,479.78,451.36,480.01,451.9,480.98z"/>
				<path class="st0" d="M468.44,311.68c2.34,5.04,9.12,3.41,15.54,3.19c7.47-0.24,16.87-0.89,19.54,3c2.06,3,0.05,7.2-1.6,9.78
					c-2.76-0.86-2.54-4.95-2.59-7.98c-1.41-0.71-5.92-0.51-7.57,0.39c3.17,2.5,13.02,8.45,7.19,12.77
					c-4.91-0.18-8.17,1.95-11.38,3.79c-6.35,3.62-11.74,8.52-20.55,8.78c-2.09-2.39,3.87-3.26,5.6-4c5.22-2.17,7.7-5.71,12.37-8.36
					c2.76-1.6,5.83-2.58,7.37-5c-0.62-2.57-2.81-5.46-5.59-4.57c1.08,1.3,3.41,1.39,3.98,3.17c-2.16,0.16-3.7-1.98-5.97-2.37
					c0.56,2.08,3.69,1.59,4.38,3.58c-2.18,0.55-3.88-2.06-5.78-1.8c0.57,1.62,2.97,1.41,3.6,2.99c-1.76,0.6-3.06-1.94-4.8-1.38
					c0.09,1.8,2.66,1.06,2.8,2.8c-1.47,0.55-2.35-1.12-3.8-1.21c-0.8,1.63,2.6,1.73,1.99,3.17c-1.31,0.54-2.05-1.9-3.57-1.19
					c-0.89,1.37,2.11,1.4,1.19,2.78c-1.06,0.55-1.54-1.05-2.58-1.17c-0.62,1.02,1.02,0.78,0.8,1.98c-1.09,0.87-1.76-1.37-2.6-0.18
					c-0.83,1.14,1.8,1.64,0.6,2.57c-1.23,0.19-1.28-1.7-2.38-0.99c-0.83,0.72,1.18,1.07,0.38,1.81c-0.79,0.65-1.36-0.27-2-0.4
					c-0.68,0.5,0.57,0.77,0.21,1.6c-1.18,0.27-1.16-0.7-2.18-0.59c-1.07,0.8,0.86,1.22,0.19,2.19c-1.32,0.34-1.1-0.89-2.19-0.8
					c-0.8,0.21,0.03,0.8-0.19,1.6c-0.89,0.23-0.99-0.35-1.6-0.4c-0.76-0.02-0.05,1.42-0.79,1.38c-1.4-0.21-2.18-1-2.41-2.36
					c4.17-2.8,13.39-7.4,13.36-13.37c-0.01-2.43-1.84-4.17-4.77-3.39c-2.01,1.9,0.79,3.56,2.38,4.19c-0.29,2.9-3.52,7.23-6.78,9.16
					c-2.35,1.4-6.9,3.6-8.17,0.4c3.7-2.47,8.13-4.23,9.76-8.76c-0.69-1.02-2-1.44-2.58-2.61c-0.13-1.42,0.16-2.5,0.2-3.78
					c-2.6-1-5.62-1.59-7.38-3.39c-2.13-5.94,2.3-10.57,4.78-14.36c-9.45-1.57-19.36-2.73-28.9-3.41c-1.13-0.07-2.29-0.53-3.42-0.57
					c-2.33-0.12-4.93,0.4-7.37,0.38c-5.06-0.02-10.22-0.56-15.75-0.38c-6.07,0.16-12.07,0.12-18.16,0.38
					c-12.26,0.59-24.26,1.87-35.66,4.2c1.18,3.33,7.35,6.42,5.77,11.55c-0.79,2.57-4.15,3.43-6.38,5.01
					c1.32,3.13-1.46,4.17-2.99,5.58c0.44,7.59,8.22,7.85,13.97,10.16c-0.96,1.54-2.27,2.69-3.42,4c-6.75-0.45-12.81-4.57-16.55-8.96
					c-0.64-0.77-2.17-2.34-1.99-3.41c0.15-0.89,2.4-1.53,2.4-2.59c0-2.74-4.55-1.45-5,0.2c-0.81,3.06,1.99,6.59,3.59,8.19
					c3.35,3.38,9.33,4.6,12.19,8.37c-5.1,0.45-8.74-3.06-12.57-4.98c-1.95-0.97-3.96-2.01-5.99-3c-4.17-1.99-8.41-3.52-13.17-5.38
					c-1.47-4.63,3.57-5.94,6.2-7.79c-1.89-1.38-5.74-1.82-8.59-1.57c1.16,3.43,0.28,8.16-3.98,8.36c-0.45-3.54-2.34-7.81,0.18-10.18
					c6.56-6.13,26.19,1.63,31.91-5.99c-1.46-1.42-3.64-0.7-5.38-0.37c-4.9,0.87-11.13,2.64-16.55,2.98
					c-2.38,0.13-5.02-0.08-6.19-1.4c-0.95-1.12-0.73-2.99-1.2-5.58c-0.67-3.67-4.53-5.78-4.77-8.98c-0.37-4.89,4.24-6.09,8.77-7.38
					c18.42-5.21,41.66-8.59,61.62-9.96c7.6-0.5,15.06-0.94,23.54-0.61c8.41,0.37,19.21-0.25,29.53,0.61
					c2.33,0.2,4.67,0.72,7.16,1.01c14.51,1.72,31.01,4.49,42.28,7.77c3.48,1.02,8.57,2.53,10.98,3.99c2.28,1.42,2.67,5.42,1.19,8.19
					c-0.75,1.41-2.54,2.32-3.19,3.97c-0.77,1.86,0.14,3.68-0.6,5.19c-0.69,1.43-3.42,2.38-5.98,2.2c-3.61-0.27-8.08-1.84-12.57-2.4
					C476.45,311.27,472.24,310.93,468.44,311.68z M497.95,306.08c1.14-2.8,5.24-5.6,3.19-9.56c-1.04-2-6.91-3.36-9.98-4.18
					c-11.7-3.2-22.61-5.7-34.32-7.38c-18.66-2.72-30.14-2.78-49.84-2.8c-14.8-0.03-30.88,1.94-46.67,3.99
					c-11.27,1.47-22.47,3.75-32.49,6.37c-3.33,0.88-7.84,1.99-9,4.39c-2.11,4.53,2.84,5.94,4.02,9.57c0.55,1.74,0.24,4.47,0.79,6.2
					c1.82-0.39,3.15-1.86,4.99-2.6c3.89-1.57,8.69-2.53,13.37-3.6c4.71-1.06,9.64-2.34,14.34-2.98c9.88-1.37,20.12-3.28,30.3-3.98
					c1.58-0.14,3.15,0.22,4.8,0.17c7.54-0.14,15.43-0.82,23.36-0.6c7.16,0.24,14.37-0.06,21.53,0.42
					c6.99,0.43,13.99,1.76,20.92,2.78c3.54,0.53,7.22,0.61,10.57,1.41c10.31,2.41,20.08,3.93,29.12,6.77
					C497.32,309.05,497.37,307.54,497.95,306.08z M471.03,305.29c-1.6-0.28-3.89-0.59-4.78,0c-2.43,1.63-4.8,5.18-5.4,8.78
					c2.01-0.68,2.99-2.26,4.78-3.02c2.41-0.97,5.68-1.06,8.58-0.97c3.36,0.09,7.33,0.41,10.78,0.97c3.66,0.64,7.75,2.87,10.55,0.62
					C489.24,309.31,479.22,306.68,471.03,305.29z M357.17,309.08c-0.68-0.77-3.41-4.02-4.4-3.79c-7.81,1.75-20.81,4.02-26.72,7.98
					c7.07,0.89,14.78-2.27,21.92-2.79c5.35-0.39,8.01,1.97,11.78,3.4C359.58,312.29,358.4,310.57,357.17,309.08z M495.14,316.08
					c-3.28-0.17-7.34-0.17-10.95,0c-5.13,0.2-11,1.13-14.57-0.82c-1.23-0.68-2.16-2.48-3.18-2.98c-1.26-0.6-5.52,3.7-5.59,4.38
					c-0.26,3.17,4.69,3.13,7.59,4.17c3.3-2.3,8.58-2.86,14.16-2.39c2.25,0.21,4.46,1.18,6.57,1c1.25-0.1,2.46-1.02,3.78-1.2
					c3.31-0.47,6.32,0,9.4,0.61C501.92,316.22,498.21,316.22,495.14,316.08z M344,317.46c-10.74,1.2-28.35-4.56-23.92,8.98
					c3.23,0.1,1.83-5.44,1.38-7.38c2.21-0.64,4.41-0.27,6.77,0c2.27,0.24,4.48,1.55,6.6,1.6c0.84,0.01,1.73-0.47,2.59-0.6
					c5.35-0.81,10.41-0.12,15.15,0.79c2.8-1.36,6.34-2.02,7.37-5.16c-1.81-1.25-3.79-2.33-6.38-2.79
					C351.01,314.56,348.56,316.94,344,317.46z M501.74,325.44c0.87-1.13,1.45-2.5,1.78-4.18c-0.6-0.53-1.08-1.2-2.18-1.2
					C501,321.42,500.32,324.73,501.74,325.44z M334.61,327.24C335.48,325.48,332.65,326.89,334.61,327.24L334.61,327.24z
					 M337.41,331.03c0.25,0.23,0.73,0.23,0.99,0c0-0.34-0.15-0.51-0.38-0.59C337.99,330.8,337.38,330.56,337.41,331.03z"/>
				<path class="st0" d="M420.97,341.6c1.19,0,2.41,0,3.6,0c1.46,1.15,2.3,2.88,3.4,4.38c0.57-1.4,1.91-2.06,1.78-4.17
					c0.65-0.31,1.68-0.2,2.6-0.21c0.36,3.28,2.37,4.95,4.19,6.77c-1.82,0.77-3.74,0.81-5.61,0.21c0.8-1.28-0.1-2.09-0.76-3.01
					c-1.27,0.78-1.65,2.36-2.79,3.19c-2.55-0.46-3.08-2.91-4.4-4.57c-1.17,0.76-1.78,2.06-2.39,3.38c-0.09,0.73,1.13,0.19,0.8,1.19
					c-1.34-0.35-2.99,0.71-3.59-0.18c1.8-1.3,2.59-3.65,4.01-5.38C421.76,342.4,420.84,342.5,420.97,341.6z"/>
				<path class="st0" d="M389.06,305.5c-0.63,5.33,7.55,6.84,3.4,11.36c-1.1,0.25-0.66-1.08-1.6-0.99c-0.5,0.57,0.85,0.99,0.79,1.79
					c-0.06,1.01-0.97,1.17-1.41,1.8c-0.93,0.02-0.87-0.98-1.59-1.2c-0.96,0.64-1.59,1.6-2.17,2.59c0.65,3.44,1.59,8.42,0.16,11.18
					c-1.96,0.05-3.75-0.09-4.38-1.39c-0.22-2.26,0.85-4.95-0.2-6.81c-0.64-1.06-1.72-0.86-2.39-1.98c-0.06-2.46,1.6-3.29,1.2-5.39
					c-0.2-1.01-1.27-1.43-1.8-2.38c-1.33-2.38-2.07-5.37-2.39-8.38c1.19-1.05,2.91-0.32,4.38-0.8c0.9-0.29,1.53-1.62,2.39-1.8
					C385.68,302.68,387.38,304.08,389.06,305.5z M381.87,306.69c-1.09,0.32-1.95-0.37-3.19,0.19c0.17,5.36,6.39,8.48,3.19,13.96
					c0.77,1.11,1.61,1.4,2.01,2.81c0.56,2.08-0.95,5.34,1.2,6.39c0.91-2.04,0.69-3.94,0.39-6c-0.17-1.16-1.15-2.56-1-3.78
					c0.33-2.66,5-5.44,5.59-7.58c0.53-1.97-2.05-2.93-3-5.01c0.19-0.8,0.19-1.19,0-1.98C384.19,303.14,383.88,306.15,381.87,306.69z
					"/>
				<path class="st0" d="M392.25,318.86c0.47,1.08,1.47,2.91,0.41,3.78c2.31,0.76,1.12,5.79-1.41,4.6c-0.36-1.45-0.66-3.42,0.6-4
					c-0.3-0.33-0.75,0.08-1.19-0.38C390.01,320.87,390.36,319.24,392.25,318.86z"/>
				<path class="st0" d="M397.25,325.05c0.71,0.73,0.88,2.91,0,3.58c0.47-0.07,0.75-0.32,1.38-0.19c1.75,2.78,3.78,6.29,4.4,9.58
					c-1.29,0.1-2.08,0.72-3.62,0.6c-1.15-2.93-2.46-5.64-3.55-8.57c-0.1-0.9,1.06-0.52,1.18-1.21c-0.28-0.51-0.89,0.29-1.41,0.19
					C394.23,327.8,394.77,324.67,397.25,325.05z M400.82,337.2c-0.5-1.97-1.45-5.18-2.98-6.76
					C398.6,332.92,399.27,335.5,400.82,337.2z"/>
				<path class="st0" d="M390.25,329.44c0.2,1.17-0.63,1.35-0.38,2.58c-0.58,0.26-1.44,0.26-1.99,0
					C387.2,330.44,388.33,328.76,390.25,329.44z"/>
				<path class="st0" d="M394.84,330.63c1.89,2.41,2.93,5.72,4.18,8.76c19.37,0,36.32-0.3,54.67,0
					c-0.69,19.76,1.31,40.05-0.61,59.83c-0.66,6.75-4.3,12.43-6.79,18.15c-0.06,0.18-0.45,0.78-0.6,0.98c-0.93,1.61-2.36,3.3-3.58,5
					c-3.48,4.91-7.81,9.36-12.58,13.15c-2.94,2.37-5.97,5.15-9.75,7.39c-1.61,0.97-3.15,2.21-5.21,3.38
					c-1.69,0.98-4.29,2.77-5.55,2.8c-2.32,0.05-6.64-3.12-8.61-4.19c-5.64-3.11-10.53-6.35-14.76-10.78
					c-8.65-9.11-17.3-21.27-18.74-37.65c-0.48-5.66-0.61-10.66-0.59-15.78c0.05-13.85,0.5-29.89,0-42.05
					c6.77-0.81,14.35,0.51,21.55-0.64c-1.11-0.46-2.15,0.2-3.19-0.36c0.66-2.19,1.67-4.05,2.77-5.79c0.73-0.2,1.83-0.06,2.6,0
					c-0.25,2.27,0.24,5.31-1,6.57c0.88,0.14,1.19-0.26,1.98-0.19c-0.39-1.1-1.57-7.03,0.62-7.18c2.22-0.18,1.97,4.85,3.37,6.18
					c-0.07-1.91-1.6-4.09-1.77-6.57C393.61,331.12,394.09,330.76,394.84,330.63z M396.64,337.2c0-1.47-0.62-3.98-1.99-4.79
					C395.09,334.22,395.2,336.38,396.64,337.2z M387.07,337.2c0.43,0.47,0.66-0.16,1.43,0c-0.08-1.04,0-1.99,0.17-2.77
					c-0.28-0.01-0.28-0.27-0.58-0.21C387.95,335.43,387.33,336.12,387.07,337.2z M392.85,337.61c0.31-0.95-0.33-2.56-0.81-3.39
					C391.8,335.09,392.02,337.15,392.85,337.61z M437.52,340.8c-3.58,0.17-7.36,0.21-10.97,0.19c-19.77-0.1-38.88,0.19-58.63-0.4
					c-0.13,8.79,0.22,17.46,0.22,27.55c0,9.72-0.65,19.7,0,29.08c0.84,13.17,7.28,23.99,14.12,32.1c3.45,4.07,6.75,7.94,11.78,11.37
					c2.01,1.38,4.45,3.04,6.98,4.59c2.23,1.37,5.93,3.58,8.19,3.41c1.49-0.14,3.6-1.97,5.37-3c1.92-1.12,3.91-2.29,5.4-3.2
					c3.84-2.35,6.65-5.02,9.55-7.57c7.34-6.37,13.01-13.69,17.16-21.94c1.88-3.77,4.76-9.51,5.38-13.75
					c1.46-9.92,0.46-20.45,0.59-30.52c0.18-10.25-0.19-19.68,0-28.3C446.89,340.89,442.67,340.55,437.52,340.8z"/>
				<path class="st0" d="M502.52,348.17c0.51,4.4,1.54,12.15-0.6,15.75c-1.43,2.42-5.6,2.39-6.97-0.2
					c-1.61-3.08,0.19-7.75-0.58-10.15c-1.03,2.68,0.38,8.67-2,10.15c-1.49,0.93-3.75,0.1-4.39-1.79c0.1-5.46-0.21-8.16,0.58-12.56
					c3.43,0.85-0.2,8.53,2.2,10.78c1.69-0.2,1.15-2.31,1.21-3.6c0.12-2.53-0.64-6.74,1.57-7.56c1.04,0.62,0.58,1.62,0.62,2.98
					c0.86-0.28,0.14-2.13,0.6-2.79c0.82-0.25,1.31-0.52,2.18-0.19c1.34,3.51-0.84,10.56,1.41,13.14c1.21-0.05,1.66-0.86,2.18-1.6
					c0.03-4.7-0.17-6.96-0.19-11.16C500.95,348.87,501.26,348.03,502.52,348.17z"/>
				<path class="st0" d="M348.79,350.37c0.42,2.92-1.06,6.52,0.99,7.78c1.88-1.19,1.1-5.41,1.38-7.59c2.09-0.21,0.87,2.86,1.17,4.4
					c1.3-0.95-0.09-3.01,0.82-3.98c2.15,0.27-0.44,5.7,1.82,6.38c-0.18-0.84-1.3-4.36-0.2-5.79c1.17,0.24-0.09,2.34,0.82,3.2
					c0.62-1.01-0.16-2.16,0.38-3.2c1.47,0.69,1.13,7.39-0.38,8.18c-1.6,0.83-3.24-0.86-2.81-3.59c-0.45,2.47-0.6,5.02-3.18,4.77
					c-3.53-0.32-2.74-7.78-1.99-10.96C348.2,349.87,348.36,350.26,348.79,350.37z"/>
				<path class="st0" d="M502.15,365.52c0.16-0.03,0.19,0.08,0.2,0.21c1.3,3.32,1.33,7.3,1.17,10.97
					c-0.18,5.32-0.75,10.82-1.99,15.95c-0.61,2.5-0.82,5-1.4,7.37c-0.33,1.35-1.05,2.5-1.37,3.78c-0.93,3.82-1.36,7.02-2.42,10.58
					c-0.57,1.94-1.14,4.02-1.78,5.79c-1.27,3.55-2.56,7.74-5.78,9.36c0.55-4.9,2.44-9.71,3.2-14.95c0.75-5.28,1.01-10.78,1.57-15.94
					c1.13-10.47,2.16-21.32,1.21-32.11c1.31-0.38,2.36,0.9,2.98,1.82c-0.17,9.09-0.31,17.99-0.99,26.3
					c-0.24,3.34-2.45,6.68-1.8,10.17c1.15-0.91,0.76-2.53,0.99-3.78c0.48-2.39,1.49-4.61,2.01-6.99c0.55-2.5,0.42-4.98,0.58-7.78
					c0.4-6.32,1.03-12.58,0-18.34C499.87,367.25,500.74,366.13,502.15,365.52z"/>
				<path class="st0" d="M441.11,408.59c-0.29,3.41,2.9,4.71,3.39,7.96c-2.18,1.61-8.09-0.52-9.17,2.21
					c1.44,1.06,2.9,3.17,4.96,2.98c-0.45,1.38-1.33,2.16-2.37,3.41c-0.77,0.84-1.89,2.78-3.01,2.78c-0.95,0-1.61-1.31-2.18-1.6
					c-1.29-0.62-2.63-0.02-2.79-1.79c-0.09-0.75,0.73-2.3,1.17-3.01c0.88-1.25,2.41-2.78,3.62-4.38c1.23-1.66,2.22-3.58,3.57-4.19
					c0.35,0.2,0.51,0.55,0.42,1.21c0.89-0.15,1.01-1.1,1.38-1.8c-0.54-0.62-0.98,0.69-1.62,0
					C438.35,410.84,439.32,408.81,441.11,408.59z M441.53,414.57c0-0.26,0-0.53,0-0.79c-0.22,0-0.41,0-0.64,0
					C440.85,414.28,441,414.62,441.53,414.57z M432.15,423.15c0.26,0.2,0.38,0.53,0.6,0.79c1.32-0.03,2.01-0.78,2.18-1.98
					C433.94,420.29,432.39,421.48,432.15,423.15z M434.75,424.93c0.5,0.25,0.66,0.8,1.38,0.8c0.5-0.62,1.29-0.98,1.39-1.99
					C436.56,422.11,434.98,423.61,434.75,424.93z"/>
				<path class="st0" d="M462.87,435.51c-1.82,0.6-4.68,1.73-6.2,0.19c-1.59-1.64-1.08-4.87-1.99-7.17c0.36-0.32,1.4-1.01,1.99-0.42
					c1.3,1.25,0.73,4.33,2.41,5.21c0.53,0.14,0.5-0.29,0.99-0.22c1.45-1.44-0.18-4.46,0.4-6.19
					C463.34,425.52,464.05,433.68,462.87,435.51z"/>
				<path class="st0" d="M506.32,427.33c0,0.34,0,0.66,0,1.01c-0.36,0.42-1.64-0.07-2,0.39c-1.9,1.26,0.66,2.38,0.8,3.59
					c0.29,1.95-1.56,2.2-2.78,3.59c3.13,5.55-1.04,10.4-5.41,12.57c-4.13,2.04-9.53,1.29-13.76,1.59c-1.13,1.38-1.64,3.37-2.78,4.78
					c-4.49,5.54-13.17,4.2-17.53,9.98c0.91,3.34,5.5,1.45,8.74,0.57c3.55-0.91,7.63-2.27,11.39-2.16c3.29,0.06,5.38,2.01,8.59,1.39
					c0.86,2.76,2.41,4.89,4.36,6.57c-0.48,2.47-1.18,4.78-1.78,7.17c-1.59,0-2.03,1.14-2.79,2.01c-1.82-0.2-4.98-0.32-6.19,1.2
					c-0.95-1.23-4.05-1.71-5.58-0.6c-1.31-0.45-1.53-1.9-3-2.2c-0.83,0.17-1.14,0.85-2.39,0.61c-0.51-0.61,0.14-1.49-0.21-1.99
					c-0.62-0.78-1.99-1.58-3.38-0.99c-0.88-0.97-2.21-1.89-3.39-1.61c-1.61,0.39-2.87,6.02-3.96,6.79c-0.49,0.21-1.23,0.12-1.61,0.4
					c-4.91,3.21-9.57,3.98-16.17,2.79c-3.28-0.6-6.17-2.42-8.97-2.79c-1.56-0.21-3.76-0.56-4.98-0.21
					c-1.29,0.35-1.09,1.52-2.02,2.58c-1.01,1.25-2.94,1.87-3.98,2.99c0.88,1.66,2.64,2.42,5.2,2.39c-1.98,4.14-8.9,1.02-11.59-0.58
					c-0.38,0.8,0.66,1.67,1.21,2.19c-6.18,2.3-5.69-6.51-10.97-5.78c0.31,1.42,1.52,1.92,1.98,3.2c-4.63,0.24-6.5-1.37-10.36-2.6
					c-0.47-0.53-0.88-1.12-1.2-1.82c-1.07,1.82-2.02,4.53-1.8,6.99c-2.61,0.37-2.96-1.57-3.98-2.8c-2.42,2.35-7.59-0.35-8.17,3.62
					c-4.43-5.04,7.11-7.13,2.79-11.38c-2.51,0.9-4.65,2.15-6.18,4c-1.81-0.46-3.42,0.58-5.17,0.79c-0.69,0.27-0.32,1.56-1.4,1.41
					c-0.81,0.17-0.64-0.6-0.81-1.01c-3.21,0.08-4.28-0.62-6.16,0.79c-1.8-1.73-4.56-2.5-6.98-3.59c-0.51-1.68-1.07-3.3-2.01-4.57
					c-2.45-0.84-6.04-0.31-7.77,0.79c-0.27,0.42,0.02,1.49-0.59,1.6c-1.99-1.16-7-1.35-8.59,0.39c-1.65-1.52-6.35-2.11-8.58-1.19
					c-1.08-0.79-1.15-2.68-2.58-2.39c-1.54,0.31-0.75,2.87-2.2,3.79c-1.97-0.17-3.87-1.6-4.78,0.4c-0.33,1.03,1.04,1.05,0.38,1.78
					c-1.43,1.2-2.66-1.64-2.99-2.18c0.63-0.92,2.6-0.32,2.81-2.01c0.05-1.19-1.16-1.1-1.39-1.97c-0.55-3.2,7.77-4.46,2.19-6.19
					c0.4-1.54,1.5-2.35,1.6-4.21c0.21-0.93-0.8-0.65-0.59-1.57c1.56-1.23,3.75-1.85,5.37-3.01c-0.71-2.32-2.34-4.12-5.37-3.58
					c-0.67-2.02-1.88-3.47-4.62-3.39c-0.77-2.25-1.71-4.41-3.99-5.19c0.29-1.69,0.51-4.92-0.98-6.39c0.72-1,2.16-1.3,2.19-2.99
					c-0.56-1.96-3.34-1.7-3.78-3.79c0.59-1.02,1.28-1.91,2.01-2.79c-0.1-1.1-1.15-1.27-1.82-1.78c0.57-1.36,2.23-2.63,3.79-1.82
					c0.21,1.07-0.73,1.01-0.59,2c0.27,1.21,2.36,0.69,3.79,0.81c0.86,1.09,0.6,2.17,0.79,3.79c1.39,0.62,2.51,0.34,3.98,0.79
					c-0.49-2.65,0.93-4.12,3.18-5.38c2.09-1.14,2.96-3.61,5.59-2.2c0.41,1.32-0.04,1.69,0,3.2c3.29,0.47,7.93-5.76,10.78-2.61
					c0.82,0.91,0.69,2.88-0.8,3.4c-1.08-0.06-0.8-1.47-1.41-1.98c-3.74,0.09,1,2.04,0.21,4.97c2.09,2.63,4.07,5.38,5.97,8.19
					c1.62-1.16,3.36-2.27,4.98-3.41c0.34-2.39,2.51-2.95,3.59-4.59c2.59-0.05,3.59,1.46,4.2,3.39c4.61,0.97,5.93,5.21,8.96,7.79
					c2.4-1.46,1.81-4.16,4.17-4.8c0.96-0.27,1.87,0.19,3.01,0c0.85-0.15,1.75-0.89,2.82-0.99c6.18-0.65,9.3,3.5,11.33,7.39
					c5.02,2.94,11.64,7.07,17.96,6.98c3.18-0.08,5.49-4.56,9.97-2.63c3.08,1.36,4.73,5.58,9.18,4.39c0.47-0.8-0.42-1.02,0-1.77
					c3.31-5.08,5.52-10.72,13.17-10.58c1.34,0.03,2.15-1.84,2.97-2.8c0.07-0.84-0.32-0.94,0-1.6c1.51-0.35,2.73-1.01,3.8-1.79
					c1.79,0.97,3.34,2.12,4.8,3.39c-0.49,1.8-1.63,2.9-1.4,5.37c-0.85,0.49-2.11,0.39-2.98,1.21c-0.21,3.19-0.97,5.96-0.84,8.97
					c-2.84,0.53-3.34,3.41-4.74,5.38c-3.44,2.41-9.15,2.56-10.97,6.6c1.31,0.82,3.72-0.28,4.35-1.4c2.48,0.92,4.34-1.46,5.8-2.8
					c0.63,0.03,0.87,0.45,1.58,0.39c1.04-0.23,1.2-1.34,2.22-1.59c2.55,0.69,3.24-1.23,5.36-1.02c1.74-2.05,0.77-5.18,1.43-7.75
					c0.5-2.12,2.49-3.72,1.99-5.79c1.7-1.68,3.28-3.5,4.4-5.78c1.16-0.5,2.32-0.99,3.18-1.8c4.91-1.75,11.21-3.87,15.15,0.22
					c3.83,0.32,5.26-1.79,6.97-3.61c-0.66-1.76-3.3-0.39-3.78-2.17c-0.33-1.2,0.69-1.72,1-3.01c-0.14-1.04-1.27-1.13-2.19-1.4
					c0.06-1.32,0.97-1.81,1.98-2.2c0.27,0.94,0.37,2.07,1.19,2.4c1.73-0.03,2.91-0.91,4.38-0.2c0.14,0.94,0.72,1.42,0.81,2.4
					c2.49-0.9,3.78-2.98,6.77-3.38c-0.08-2.06,0-3.88,1.21-4.6c1.25-0.15,1.97,0.29,2.58,0.79c0.59-0.21,1.18-0.4,1.42-0.98
					c0.12-1.42-1.71-1.8-0.6-3.01C503.8,426,504.86,426.89,506.32,427.33z M499.56,430.72c-0.57,0.99,0.13,2.18,0.17,3.2
					c1.35,0.68,3.58,0.38,4.01-1.01C502.78,431.74,501.55,430.84,499.56,430.72z M330.44,439.09c3.67,0.69,6.16-2.38,10.56-2.2
					c1.59,0.62,1.47,3.89,0.4,5c0.5,0.32,0.99,0.69,1.6,0.38c-0.27-2.03,1.16-3.87,0.61-6.17c-1.37-2.2-6.08-1.45-8.18,0.21
					c-1.11,0.86-1.63,3.31-3.19,1.39c0.29-0.56,0.81-0.93,0.98-1.6c-0.14-0.58-0.93-0.51-0.77-1.39c0.35-0.58,1.56-0.31,1.59-1.19
					c-0.03-0.23-0.23-0.31-0.41-0.41C331.84,434.29,327.95,436.12,330.44,439.09z M318.06,437.3c0.92,0.76,1.81,2.12,3.39,1.61
					c0.53-0.57,0.39-1.75,0.39-2.81C320.71,435.35,318.44,436.06,318.06,437.3z M489.97,438.72c-0.07-3.57-3.55-3.71-4.39-0.61
					c1.42,0.29,2.44,1.02,4,1.2C489.67,439.08,489.79,438.83,489.97,438.72z M483.18,446.08c-1.54,0.36-3.99-0.96-4.17,1.79
					c1.77,1.05,4.29,0.64,6.77,0.61c8.21-0.18,16.94-2.39,16.14-10.59C494.47,430.51,489.67,444.56,483.18,446.08z M332.02,440.69
					c-0.38,2.75,3.63,2.72,3.6,5.79c2.14-1.62,2.93-4.64,5.18-6.19c0-0.45,0-0.93,0-1.38C337.68,437.88,335.37,440.64,332.02,440.69
					z M334.82,449.85c-1.46-2.99-3.87-7.45-5.59-8.77c-4.26-3.24-8.9-0.69-8.97,4.19c-0.1,10.11,12.9,10.6,14.76,18.16
					c-3.98,0.9-8.25,5.37-5.4,9.97c1.16,1.85,4.86,4.04,6.58,4.59c1.63,0.47,4.67,0.43,7.18,0.6c6.04,0.35,10.63-2.12,15.96-1.99
					c0.15-1.45,0.16-3.03,0.8-4.4c-4.96-1.02-7.21-4.77-9.78-8.17c-2.46-0.45-6.87-2.41-9.56-0.79c-0.95,0.54-0.71,1.61-2.02,1.78
					C339.41,458.97,337.71,455.84,334.82,449.85z M383.68,456.64c-1.54-1.35-2.17-2.61-3.79-3.19c-1.39-0.48-2.93,0.05-4.59-0.19
					c-2.34-0.35-2.12-1.63-3.19-3.19c-0.6-0.92-2.01-1.77-2.8-2.99c-0.2-0.34-0.2-0.73-0.38-0.99c-1.95-2.58-5.7-2.64-6.57-6
					c-0.63-0.32-1.08-0.79-2.21-0.6c-4.88,7.71-13.43,11.71-20.14,17.54c0.25,1.5,0.49,3,0.99,4.2c2.77,0.5,2.38-4.03,4.78-2.58
					c-0.13,0.71-0.69,1.03-0.8,1.79c0.9,0.6,2.21,0.72,3.4,1c0.69-0.37,0.51-1.6,1.61-1.6c1.05,0.31,0.24,1.32,0.38,2.38
					c2.29,1.61,2.34,1.61,4.21,0c0.26,0.13,0.48,0.32,0.59,0.61c-0.39,1-0.79,2.01-1,3.2c1.36,2.2,3.58,3.58,6.57,4.17
					c1.06-1.34,2.22-2.58,4.19-3.01c-1.17-0.62-1.86-3.51,0.19-3.76c0.33,0.73,0.33,2.65,0,3.38c1.54-0.66,4.09-0.32,5.42-1.19
					c0.08-0.94-0.1-2.11,0.78-2.2c0.56,0.35,0.56,1.28,0.8,1.97c0.84,0.14,2.25,0.28,3.39,0.63c0.51-1.07-1.21-2.55,0.4-3.2
					c1.4,0.81,1.71,2.66,2.39,4.18c1.73,0.32,2.7,1.41,4.61,1.6c0.72-3.93,2.79-7.65,7.75-7.98
					C388.96,458.68,386.13,457.86,383.68,456.64z M344.6,442.27c-0.82,1.31-2.53,1.29-4.2,0.8c-1.61,1.5-2.48,3.77-3.77,5.6
					c0.43,0.54,1.29,0.66,1.39,1.58c-0.77,1.56,0.19,3.79,1.39,4.59c2.73-1.98,5.66-3.79,8.37-5.6c0.84-0.55,2.34-1.27,2.21-2.57
					c-2.71-1.16-2.6-5.12-5.59-6C344.34,441.34,344.76,441.53,344.6,442.27z M453.48,444.28c-1.36-2.56-6.09-0.08-5.58,3.2
					c0.12,0.66,1.27,0.31,1.2,1.2c-1.14,0.51-1.74,1.08-2.99,1.79c-0.73-0.16-0.16-1.57-0.81-1.79c-0.8-0.25-2.17-0.19-4-0.2
					c-5.76,3.49-8.9,10.62-10.18,17.94c-0.05,1.5-2.89,3.09-2.77,4.79c0.07,1.21,1.92,2.91,3.79,1.99c1.06-1.61,1.96-3.83,3.8-5.19
					c1.73-1.31,4.05-1.43,5.96-2.61c3.78-2.23,8.31-7.2,7.98-12.55c-0.34-0.49-1.3-0.4-1.59-0.99
					C449.87,450.13,455.38,447.98,453.48,444.28z M463.85,447.48c-4.52,3.48-6.53,10.36-6.59,16.94c1.78,0.07,3.15,1.35,4.41,0.8
					c0.57-0.62-0.66-0.52-0.61-1.18c1.71-1.86,3.63-4.41,6.58-4.39c4.19-3.28,11.88-3.03,12.97-9.38c-1.05-0.08-2.05-0.22-2.39-1.01
					c-0.41-1.36,0.2-3.06,0-4.57C473.16,442.87,467.12,444.94,463.85,447.48z M396.06,453.85c-2.59-1.52-4.26-3.72-6-5.77
					c-0.68-0.76-1.04-1.82-1.57-2.2c-3.28-2.2-7.54,0.7-11.02,0c-1.25,1.31-2.55,3.63-2.96,5.17c0.58,0.93,2.36,0.14,3.37,0.19
					c0.38-0.68,0-2.1,1.21-2c0.88,1.39,0.92,3.6,3.39,3.39c0.42-0.78-0.76-3.45,0.98-3.39c0.5,1.47,0.62,3.39,0.41,5
					c9.05,6.19,20.56,9.89,26.13,19.57c5.43-1.1,9.68-6.64,16.34-3.4c2.11-1.9,3.52-4.46,3.81-8.19c-2.13-0.42-3.04-1.59-4.61-2.8
					c-1.3-0.99-3.76-3.06-5.57-2.97c-1.12,0.04-2.66,1.41-4.39,1.99c-1.66,0.54-3.46,0.87-5.37,0.98c-3.17,0.2-3.85-1.44-6.4-1.39
					c-0.58,0.59,1.07,1.5,0.4,2.2c-1.55-0.21-2.58-1.61-2.2-3.2C400.14,455.43,397.95,454.99,396.06,453.85z M402.24,484.97
					c2.64,0.04,4.26-2.75,4.38-5.4c1.67,0,4.91,0.97,5.39-0.79c-0.56-0.4-1.75-0.12-2.6-0.18c-2.96-2.19-3.8-6.36-9.16-6.39
					c-3.6-0.02-7.3,1.39-10.59,0c-2.46-1.07-3.58-4.59-2.19-7.18c1.08-0.58,2.06-1.24,3.98-0.99c1.06,0.4,1.11,1.84,2.19,2.16
					c1.05-3.37-2.42-4.48-4.76-3.77c-3.74,1.13-4.63,6.63-3.4,10.37c1.37,4.1,5.93,6.21,6.38,8.97c0.62,3.57-2.89,4.19-3.58,6.18
					c2.83,1.2,5.58-0.69,5.97-3.38c0.21-1.24-0.8-2.92,0.42-3.79c3.06,1.33-0.49,6.71,1.99,8.56c0.26-2.69,1.83-4.62,1.39-7.34
					c-0.66-4.09-5.75-3.85-8.76-6c-2.01-1.42-2.91-3.35-2.98-5.98c1.83,4.32,5.63,5.54,9.94,7.19c2.76,1.02,4.09,3.08,6.19,4.58
					c1.78-2.76-1.25-5.53-3.19-6.19c-2.09-0.69-4.78,0.78-5.76-1c6.52-4.43,16.43,5.59,8.37,9.18c0-0.08-0.17-0.23-0.2,0
					C402.07,483.94,401.3,484.91,402.24,484.97z M391.45,468.21c-0.08-3.86-4.12-2.12-2.18,1.6c2.62,2.02,6.61,1.03,10.14,0.81
					c2.68-0.2,4.55,0.5,6.61,1.38c-2.65-3.66-6.04-6.63-10.39-8.56C396.88,466.92,394.18,469.34,391.45,468.21z M467.44,472.99
					c5.44,0.82,10.08,5.66,16.35,5.98c2.28,0.13,5.5,0.24,7.79-1.38c4.08-2.98,1.26-9.64-2.18-11.4c-3.66-1.81-9.67-1.23-13.59-0.17
					c-1.74,0.45-3.37,1.52-5.18,1.98c-3.29,0.86-9.12-0.03-8.57,3.99C463.5,473.43,465.23,472.68,467.44,472.99z M445.5,471
					c-2.06,0.92-4.5,2.24-6.76,2.81c-4.79,1.14-10.25,0.39-9.21,5.97c2.41,0.72,5.39,0.68,7.79,0.6c0.68-0.39,0.35-1.79,1.18-2.01
					c0.7-0.02,1.42-0.08,1.62,0.4c0.53,0.85-1.23,0.83-1.18,1.8c7.7,4.86,23.47,3.8,25.7-5.59c-0.75-0.77-2.68-0.36-3.38-1.17
					c-0.92-2.28-0.41-4.65,0.59-6.4C456.85,465.49,450.53,468.75,445.5,471z M368.74,467.8c-4.23,0.36-7.66,3.01-7.6,7.59
					c0.09,5.79,6.39,9.33,11.77,9.18c3.15-0.08,8.46-1.72,10.97-2.98c1-0.53,3.12-2.1,3.19-2.8c0.15-1.42-2.38-3.36-3-5.17
					c-0.25-0.82-0.06-1.79-0.6-2.8C379.17,469.3,373.85,467.41,368.74,467.8z M418.78,482.37c1.59,0.28,2.45,2.68,4.4,3
					c2.37,0.36,5.25-1.73,5.37-3.6c0.07-1.14-0.84-2.05-0.59-3.39c0.13-0.77,0.84-1.43,1.01-2.19c0.51-2.76-3.76-4.71-6.19-4.98
					c-5.28-0.59-7.97,4.31-12.57,5.19c0.37,1.42,3.05,0.53,3.78,1.6c0.15,1.15-0.64,1.36-0.4,2.58c2.04,0.52,2.47,0.06,4.19-0.39
					C418.56,480.45,418.82,481.26,418.78,482.37z M325.84,476.19c0.19,1.83,1.81,2.19,3.21,2.79c1.26-0.48,0.9-3.39,0-3.99
					C327.64,475.03,326.7,475.58,325.84,476.19z M408.39,481.37c-0.38,0.53-1.01,1.66-0.58,2.39c0.48,0.42,1.27-0.04,1.8-0.19
					c1.81,0.66,3.35,0.85,4.58,1.99c1.2,1.12,1.37,3.32,3.21,3.77c0.48-1.02-0.73-2.57-0.63-3.16c3.43,0.29,4.8,3.71,8.18,3.39
					C420.23,486.06,416.34,481.03,408.39,481.37z M404.6,485.96c0.86,0.65,2.49,1.46,3.62,1.2
					C408.33,485.49,405.26,483.83,404.6,485.96z"/>
			</g>
			<g>
				<polygon class="st0" points="267.21,526.53 243.72,231.79 230.28,241.86 245.66,529.51 				"/>
				<path class="st0" d="M237.47,529.51c0,0-11.48-202.21-10.53-313.74l-11.97,11.27l2.41,306L237.47,529.51z"/>
				<polygon class="st0" points="210.16,263.81 204.9,263.81 207.53,529.51 213.04,524.16 				"/>
				<polygon class="st0" points="200.01,220.51 190.98,211.03 185.71,539.58 200.01,529.51 				"/>
				<polygon class="st0" points="185.71,263.81 182.36,263.81 175.18,529.51 180.42,526.53 				"/>
				<polygon class="st0" points="177.55,231.79 165.09,222.89 143.05,535.43 165.57,533.05 				"/>
				<polygon class="st0" points="157.42,245.45 151.69,250.76 127.23,533.05 134.41,529.51 				"/>
				<polyline class="st0" points="185.48,563.17 96.45,544.32 96.45,535.43 185.48,555.62 				"/>
				<polyline class="st0" points="184.72,563.17 300.04,545.74 300.04,536.85 184.72,555.62 				"/>
			</g>
			<g>
				<path class="st1" d="M275.58,299.35h26.11v8.21h-16.15v8.02h16.15v8.08h-16.15v19.92h-9.96V299.35z"/>
				<path class="st1" d="M275.46,352.22h28.72v8.22h-18.77v7.99h18.77v8.12h-18.77v11.59h18.77v8.27h-28.72V352.22z"/>
				<path class="st1" d="M303.06,411.04l-7.41,5.51c-2.61-3.04-5.28-4.56-7.97-4.56c-1.3,0-2.38,0.29-3.22,0.89
					c-0.85,0.57-1.26,1.26-1.26,1.99c0,0.73,0.3,1.43,0.9,2.11c0.82,0.88,3.28,2.76,7.34,5.65c3.83,2.7,6.14,4.4,6.96,5.09
					c2.03,1.72,3.46,3.38,4.33,4.96c0.82,1.56,1.24,3.28,1.24,5.16c0,3.61-1.49,6.62-4.46,8.98c-3,2.38-6.86,3.54-11.69,3.54
					c-3.74,0-7-0.76-9.78-2.32c-2.77-1.56-5.15-3.96-7.14-7.27l8.42-4.26c2.51,3.91,5.44,5.84,8.75,5.84c1.7,0,3.15-0.4,4.35-1.25
					c1.16-0.83,1.73-1.79,1.73-2.91c0-0.99-0.45-2-1.3-3c-0.92-1.01-2.86-2.54-5.87-4.6c-5.72-3.93-9.43-6.96-11.09-9.1
					c-1.66-2.12-2.51-4.24-2.51-6.37c0-3.07,1.39-5.71,4.17-7.9c2.78-2.18,6.22-3.28,10.29-3.28c2.63,0,5.14,0.51,7.51,1.52
					C297.7,406.49,300.28,408.36,303.06,411.04z"/>
			</g>
			<g>
				<path class="st1" d="M319.29,229.48h8.55v28.85c0,2.49,0.19,4.23,0.64,5.28c0.44,1.01,1.15,1.87,2.15,2.47
					c1.01,0.6,2.22,0.92,3.64,0.92c1.49,0,2.77-0.34,3.84-1.02c1.08-0.71,1.84-1.58,2.26-2.63c0.4-1.07,0.6-3.08,0.6-6.08v-27.79
					h8.54v26.61c0,4.48-0.27,7.59-0.77,9.33c-0.51,1.75-1.46,3.42-2.88,5.03c-1.44,1.6-3.09,2.81-4.92,3.59
					c-1.87,0.79-4.03,1.17-6.51,1.17c-3.23,0-6.04-0.73-8.44-2.22c-2.39-1.47-4.11-3.35-5.15-5.57c-1-2.23-1.54-5.98-1.54-11.32
					V229.48z"/>
				<path class="st1" d="M359.37,229.48h8.15l19.06,29.36v-29.36h8.48v44.61h-8.17l-19.04-29.26v29.26h-8.48V229.48z"/>
				<path class="st1" d="M418.85,229.48h8.6l17.18,44.61h-8.85l-3.5-9.2h-18.18l-3.64,9.2h-8.81L418.85,229.48z M423.2,241.31
					l-5.98,15.33h11.95L423.2,241.31z"/>
				<path class="st1" d="M455.49,229.48h8.27l10.33,31.13l10.42-31.13h8.25l7.47,44.61h-8.2l-4.79-28.15l-9.45,28.15h-7.46
					l-9.4-28.15l-4.9,28.15h-8.25L455.49,229.48z"/>
			</g>
		</g>
		<g>
			<path class="st1" d="M521.72,624.01H81.03c-9.89,0-17.92-8.04-17.92-17.94V168.11c0-9.9,8.03-17.94,17.92-17.94h440.69
				c9.88,0,17.93,8.04,17.93,17.94v437.96C539.65,615.98,531.6,624.01,521.72,624.01z M81.03,160.41c-4.25,0-7.68,3.47-7.68,7.7
				v437.96c0,4.24,3.43,7.7,7.68,7.7h440.69c4.24,0,7.68-3.45,7.68-7.7V168.11c0-4.23-3.45-7.7-7.68-7.7H81.03z"/>
		</g>
	</g>
</g>
<g id="Capa_2">
</g>
</svg>
